<?xml version="1.0" encoding="UTF-8" standalone="no"?>
<!DOCTYPE svg  PUBLIC '-//W3C//DTD SVG 1.1//EN'  'http://www.w3.org/Graphics/SVG/1.1/DTD/svg11.dtd'>
<svg xmlns="http://www.w3.org/2000/svg">
<defs>
<font id="DINPro-Black" horiz-adv-x="556">
<font-face underline-position="-85" font-weight="900" descent="-200" panose-1="2 0 5 3 3 0 0 2 0 4" units-per-em="1000" unicode-range="U+0020-25CA" bbox="-122 -200 1184 1031" x-height="538" underline-thickness="51" font-family="DINPro" ascent="800" cap-height="712"/>
<missing-glyph horiz-adv-x="1000"/>
<glyph glyph-name=".notdef" horiz-adv-x="1000"/>
<glyph glyph-name=".null" horiz-adv-x="0"/>
<glyph glyph-name=".null" horiz-adv-x="0"/>
<glyph glyph-name="nonmarkingreturn" horiz-adv-x="333"/>
<glyph glyph-name="space" horiz-adv-x="222" unicode=" "/>
<glyph glyph-name="exclam" horiz-adv-x="366" unicode="!" d="M287 0h-168v161h168v-161zM306 712l-44 -475h-118l-44 475h206z"/>
<glyph glyph-name="quotedbl" horiz-adv-x="488" unicode='&quot;' d="M204 478h-147v234h147v-234zM431 478h-147v234h147v-234z"/>
<glyph glyph-name="numbersign" horiz-adv-x="713" unicode="#" d="M409 412h-90l-13 -88h90zM666 412h-83l-13 -88h58v-155h-83l-27 -169h-174l27 169h-90l-27 -169h-174l27 169h-58v155h83l13 88h-58v155h83l24 153h174l-24 -153h90l24 153h174l-24 -153h58v-155z"/>
<glyph glyph-name="dollar" horiz-adv-x="633" unicode="$" d="M270 445v118q-31 -6 -46.5 -24t-15.5 -40q0 -19 14 -33q17 -17 48 -21zM418 214q0 28 -14 42q-14 15 -48 19v-122q62 12 62 61zM590 218q0 -90 -59.5 -147t-154.5 -72v-113h-126v108q-158 5 -245 94l112 112q48 -48 153 -50v132l-39 5q-93 12 -143 63q-49 50 -49 143 q0 88 56.5 148.5t154.5 73.5v91h126v-89q127 -8 203 -84l-110 -110q-36 36 -113 41v-125l41 -6q94 -13 140 -59q53 -52 53 -156z"/>
<glyph glyph-name="percent" horiz-adv-x="857" unicode="%" d="M696 137v87q0 39 -35 39t-35 -39v-87q0 -39 35 -39t35 39zM231 488v87q0 39 -35 39t-35 -39v-87q0 -39 35 -39t35 39zM661 712l-339 -712h-126l339 712h126zM347 484q0 -67 -43.5 -103t-107.5 -36t-107.5 36t-43.5 103v95q0 67 43.5 103t107.5 36t107.5 -36t43.5 -103 v-95zM812 133q0 -67 -43.5 -103t-107.5 -36t-107.5 36t-43.5 103v95q0 67 43.5 103t107.5 36t107.5 -36t43.5 -103v-95z"/>
<glyph glyph-name="ampersand" horiz-adv-x="710" unicode="&amp;" d="M349 538q0 19 -11.5 30.5t-33.5 11.5q-45 0 -45 -43q0 -20 38 -58l24 17q28 20 28 42zM360 168l-111 127q-42 -29 -42 -78q0 -32 24.5 -53.5t58.5 -21.5q40 0 70 26zM710 0h-206l-45 52q-26 -19 -39.5 -28t-49.5 -19.5t-80 -10.5q-241 0 -241 222q0 103 113 178 q-67 75 -67 147q0 81 54.5 129t154.5 48q93 0 146 -49.5t53 -129.5q0 -69 -70 -122q-32 -25 -50 -37l84 -97q27 31 33 103h154q-11 -144 -83 -223z"/>
<glyph glyph-name="quotesingle" horiz-adv-x="262" unicode="&apos;" d="M205 478h-148v234h148v-234z"/>
<glyph glyph-name="parenleft" horiz-adv-x="358" unicode="(" d="M309 16l-110 -110l-17 17l-18.5 18.5t-16 17t-18 20t-14.5 19t-14 21.5q-29 48 -29 144v386q0 96 29 144q6 10 14 21.5t14.5 19t18 20t16 17l18.5 18.5l17 17l110 -110q-41 -41 -57 -67q-16 -27 -16 -86v-374q0 -59 16 -86q16 -26 57 -67z"/>
<glyph glyph-name="parenright" horiz-adv-x="358" unicode=")" d="M286 163q0 -96 -29 -144q-6 -10 -14 -21.5t-14.5 -19t-18 -20t-16 -17l-18.5 -18.5l-17 -17l-110 110q41 41 57 67q16 27 16 86v374q0 59 -16 86q-16 26 -57 67l110 110l17 -17l18.5 -18.5t16 -17t18 -20t14.5 -19t14 -21.5q29 -48 29 -144v-386z"/>
<glyph glyph-name="asterisk" horiz-adv-x="506" unicode="*" d="M459 453l-56 -97l-99 64l5 -118h-112l5 118l-99 -64l-56 97l105 54l-105 54l56 97l99 -64l-5 118h112l-5 -118l99 64l56 -97l-105 -54z"/>
<glyph glyph-name="plus" d="M507 206h-152v-152h-154v152h-152v154h152v152h154v-152h152v-154z" unicode="+"/>
<glyph glyph-name="comma" horiz-adv-x="288" unicode="," d="M231 -50l-174 -128v352h174v-224z"/>
<glyph glyph-name="hyphen" horiz-adv-x="426" unicode="-" d="M377 218h-328v154h328v-154z"/>
<glyph glyph-name="period" horiz-adv-x="294" unicode="." d="M237 0h-180v180h180v-180z"/>
<glyph glyph-name="slash" horiz-adv-x="431" unicode="/" d="M437 786l-285 -860h-152l285 860h152z"/>
<glyph glyph-name="zero" d="M343 215v281q0 36 -18.5 55t-46.5 19t-46.5 -19t-18.5 -55v-281q0 -36 18.5 -54.5t46.5 -18.5t46.5 18.5t18.5 54.5zM507 216q0 -105 -67 -163.5t-162 -58.5t-162 58.5t-67 163.5v280q0 105 67 163.5t162 58.5t162 -58.5t67 -163.5v-280z" unicode="0"/>
<glyph glyph-name="one" d="M406 0h-164v537l-152 -132v175l152 132h164v-712z" unicode="1"/>
<glyph glyph-name="two" d="M511 0h-458v148l258 280q36 39 36 76q0 30 -16.5 48t-47.5 18q-27 0 -46.5 -16t-19.5 -53h-164q0 101 66.5 159t163.5 58q101 0 164.5 -58t63.5 -157q0 -52 -20 -88t-68 -87l-170 -180h258v-148z" unicode="2"/>
<glyph glyph-name="three" d="M516 213q0 -106 -68 -162.5t-169 -56.5q-63 0 -114.5 21.5t-87 73.5t-35.5 128h164q0 -36 20.5 -55.5t52.5 -19.5q33 0 53 19.5t20 56.5q0 32 -21.5 53.5t-54.5 21.5h-23v142h23q34 0 51 20t17 47q0 32 -19 50t-46 18t-46 -18t-19 -49h-164q0 98 65.5 156.5t163.5 58.5 q99 0 164 -59.5t65 -151.5t-74 -139q82 -57 82 -155z" unicode="3"/>
<glyph glyph-name="four" d="M530 94h-53v-94h-156v94h-295v156l236 462h180l-236 -462h115v94h156v-94h53v-156z" unicode="4"/>
<glyph glyph-name="five" d="M512 243q0 -67 -14 -108t-52 -80q-61 -61 -165 -61q-107 0 -169 62q-24 24 -38 54t-17.5 52t-6.5 55h164q8 -75 67 -75q28 0 46 18q21 21 21 83q0 56 -17 78.5t-50 22.5q-17 0 -29.5 -5t-20 -14t-10.5 -15.5t-7 -16.5h-151v419h434v-148h-285v-110q36 28 96 28 q88 0 138 -50q40 -40 53 -85t13 -104z" unicode="5"/>
<glyph glyph-name="six" d="M348 223q0 38 -21 59.5t-52 21.5t-52 -21.5t-21 -59.5t21 -59.5t52 -21.5t52 21.5t21 59.5zM512 223q0 -109 -68 -169t-169 -60t-169 60t-68 169q0 34 12 74.5t22 61.5t34 71l137 282h180l-141 -279q14 5 40 5q72 0 131 -58t59 -157z" unicode="6"/>
<glyph glyph-name="seven" d="M522 564l-222 -564h-180l222 564h-152v-112h-156v260h488v-148z" unicode="7"/>
<glyph glyph-name="eight" d="M346 502q0 28 -20 48t-48 20t-48 -20t-20 -48t20 -48t48 -20t48 20t20 48zM353 217q0 31 -22 53t-53 22t-53 -22t-22 -53t22 -53t53 -22t53 22t22 53zM517 213q0 -106 -67.5 -162.5t-171.5 -56.5t-171.5 56.5t-67.5 162.5q0 41 16.5 75.5t29.5 47.5t34 30q-73 61 -73 141 q0 97 68 154t164 57t164 -57t68 -154q0 -80 -73 -141q21 -17 34 -30t29.5 -47.5t16.5 -75.5z" unicode="8"/>
<glyph glyph-name="nine" d="M354 489q0 38 -21 59.5t-52 21.5t-52 -21.5t-21 -59.5t21 -59.5t52 -21.5t52 21.5t21 59.5zM518 489q0 -34 -12 -74.5t-22 -61.5t-34 -71l-137 -282h-180l141 279q-14 -5 -40 -5q-72 0 -131 58t-59 157q0 109 68 169t169 60t169 -60t68 -169z" unicode="9"/>
<glyph glyph-name="colon" horiz-adv-x="317" unicode=":" d="M260 0h-180v180h180v-180zM260 253h-180v180h180v-180z"/>
<glyph glyph-name="semicolon" horiz-adv-x="317" unicode=";" d="M260 253h-180v180h180v-180zM257 -50l-174 -128v352h174v-224z"/>
<glyph glyph-name="less" d="M503 26l-450 198v142l450 198v-173l-235 -96l235 -96v-173z" unicode="&lt;"/>
<glyph glyph-name="equal" d="M507 96h-458v154h458v-154zM507 340h-458v154h458v-154z" unicode="="/>
<glyph glyph-name="greater" d="M503 224l-450 -198v173l235 96l-235 96v173l450 -198v-142z" unicode="&gt;"/>
<glyph glyph-name="question" horiz-adv-x="538" unicode="?" d="M372 0h-168v161h168v-161zM508 508q0 -62 -51 -128l-69 -87q-18 -22 -18 -47v-9h-164v23q0 63 41 111l70 82q27 31 27 56q0 27 -15.5 44t-44.5 17q-60 0 -60 -63h-164q0 98 64.5 154.5t159.5 56.5q94 0 159 -55.5t65 -154.5z"/>
<glyph glyph-name="at" horiz-adv-x="784" unicode="@" d="M579 226q0 52 -14.5 74t-45.5 22t-45.5 -22t-14.5 -74t14.5 -74t45.5 -22t45.5 22t14.5 74zM735 -4l-151 4v40q-48 -46 -113 -46q-74 0 -120 44q-32 30 -40 70t-8 118t8 117.5t40 70.5q46 44 119 44q66 0 109 -41v26q0 63 -32 95t-95 32h-120q-63 0 -95 -32t-32 -95v-262 q0 -30 8 -48t28 -38l-113 -113q-43 43 -61 83.5t-18 105.5v278q0 72 14 120.5t50 84.5t85.5 50t122.5 14h142q72 0 121.5 -13.5t86.5 -50.5q36 -36 50 -84.5t14 -120.5v-453z"/>
<glyph glyph-name="A" horiz-adv-x="653" unicode="A" d="M391 252l-60 190l-64 -190h124zM653 0h-183l-33 106h-219l-35 -106h-183l259 712h135z"/>
<glyph glyph-name="B" horiz-adv-x="653" unicode="B" d="M419 497q0 24 -15 41t-48 17h-109v-116h109q33 0 48 17t15 41zM429 220q0 26 -15.5 44t-48.5 18h-118v-125h118q33 0 48.5 18.5t15.5 44.5zM604 210q0 -99 -62 -154.5t-160 -55.5h-310v712h295q109 0 168 -56t59 -150q0 -88 -78 -141q16 -10 27 -18.5t27 -27t25 -46.5 t9 -63z"/>
<glyph glyph-name="C" horiz-adv-x="609" unicode="C" d="M589 226q-19 -114 -92 -173t-178 -59q-118 0 -198 80q-32 32 -49 78t-20 82.5t-3 97.5v24v24q0 61 3 97.5t20 82.5t49 78q80 80 198 80q105 0 178 -59t92 -173h-178q-21 76 -91 76q-46 0 -69 -30q-14 -18 -20.5 -52.5t-6.5 -123.5t6.5 -123.5t20.5 -52.5q23 -30 69 -30 q70 0 91 76h178z"/>
<glyph glyph-name="D" horiz-adv-x="651" unicode="D" d="M427 356q0 86 -4 115t-15 45q-27 40 -84 40h-77v-400h77q57 0 84 40q11 16 15 45t4 115zM602 356v-58q0 -77 -14 -129.5t-60 -98.5q-70 -70 -192 -70h-264v712h264q122 0 192 -70q46 -46 60 -98.5t14 -129.5v-58z"/>
<glyph glyph-name="E" horiz-adv-x="608" unicode="E" d="M556 0h-484v712h484v-156h-309v-119h264v-156h-264v-125h309v-156z"/>
<glyph glyph-name="F" horiz-adv-x="596" unicode="F" d="M556 556h-309v-125h264v-156h-264v-275h-175v712h484v-156z"/>
<glyph glyph-name="G" horiz-adv-x="647" unicode="G" d="M598 311q0 -88 -16 -142t-56 -95q-77 -80 -207 -80q-118 0 -198 80q-32 32 -49 78t-20 82.5t-3 97.5v24v24q0 61 3 97.5t20 82.5t49 78q80 80 198 80q127 0 195 -68t83 -168h-176q-11 42 -34.5 61t-67.5 19q-45 0 -69 -31q-14 -18 -20 -51.5t-6 -123.5t6 -124t20 -52 q23 -30 69 -30q52 0 78 28q27 27 27 76v10h-105v146h279v-99z"/>
<glyph glyph-name="H" horiz-adv-x="680" unicode="H" d="M608 0h-175v282h-186v-282h-175v712h175v-274h186v274h175v-712z"/>
<glyph glyph-name="I" horiz-adv-x="319" unicode="I" d="M247 0h-175v712h175v-712z"/>
<glyph glyph-name="J" horiz-adv-x="516" unicode="J" d="M454 244q0 -119 -79.5 -184.5t-188.5 -65.5q-63 0 -107 17.5t-87 60.5l115 114q36 -36 79 -36t68 24.5t25 73.5v464h175v-468z"/>
<glyph glyph-name="K" horiz-adv-x="673" unicode="K" d="M673 0h-204l-164 292l-60 -69v-223h-173v712h173v-252l206 252h214l-243 -288z"/>
<glyph glyph-name="L" horiz-adv-x="576" unicode="L" d="M546 0h-474v712h175v-556h299v-156z"/>
<glyph glyph-name="M" horiz-adv-x="808" unicode="M" d="M736 0h-175v341l-101 -176h-112l-101 176v-341h-175v712h172l160 -314l160 314h172v-712z"/>
<glyph glyph-name="N" horiz-adv-x="700" unicode="N" d="M628 0h-153l-228 358v-358h-175v712h153l228 -358v358h175v-712z"/>
<glyph glyph-name="O" horiz-adv-x="640" unicode="O" d="M416 356q0 90 -6 123.5t-20 51.5q-24 31 -70 31t-70 -31q-14 -18 -20 -51.5t-6 -123.5t6 -123t20 -51q24 -32 70 -32t70 32q14 18 20 51t6 123zM591 356v-24q0 -61 -3 -97.5t-20 -82.5t-49 -78q-80 -80 -199 -80t-199 80q-32 32 -49 78t-20 82.5t-3 97.5v24v24 q0 61 3 97.5t20 82.5t49 78q80 80 199 80t199 -80q32 -32 49 -78t20 -82.5t3 -97.5v-24z"/>
<glyph glyph-name="P" horiz-adv-x="627" unicode="P" d="M422 483q0 29 -21 50.5t-55 21.5h-99v-144h99q34 0 55 21.5t21 50.5zM597 483q0 -94 -65 -161.5t-178 -67.5h-107v-254h-175v712h282q113 0 178 -67.5t65 -161.5z"/>
<glyph glyph-name="Q" horiz-adv-x="640" unicode="Q" d="M416 356q0 90 -6 123.5t-20 51.5q-24 31 -70 31t-70 -31q-14 -18 -20 -51.5t-6 -123.5t6 -123t20 -51q24 -32 70 -32q9 0 14 1l-45 45l89 89l34 -34q4 48 4 105zM602 61l-89 -89l-55 55q-57 -33 -138 -33q-119 0 -199 80q-32 32 -49 78t-20 82.5t-3 97.5v24v24 q0 61 3 97.5t20 82.5t49 78q80 80 199 80t199 -80q32 -32 49 -78t20 -82.5t3 -97.5v-24v-23q0 -76 -7.5 -127t-33.5 -93z"/>
<glyph glyph-name="R" horiz-adv-x="652" unicode="R" d="M422 483q0 29 -21 50.5t-55 21.5h-99v-144h99q34 0 55 21.5t21 50.5zM635 0h-203l-126 265h-59v-265h-175v712h282q113 0 178 -67.5t65 -161.5q0 -67 -34 -114.5t-82 -71.5z"/>
<glyph glyph-name="S" horiz-adv-x="593" unicode="S" d="M550 218q0 -105 -78.5 -164.5t-196.5 -59.5q-88 0 -153.5 20.5t-116.5 73.5l112 112q50 -50 159 -50q102 0 102 64q0 27 -14 42q-15 15 -47 19l-86 12q-95 14 -143 63q-49 50 -49 143q0 99 70.5 162t189.5 63q155 0 240 -85l-110 -110q-42 42 -123 42h-12q-42 0 -64 -20 t-22 -46q0 -19 14 -33q17 -17 49 -21l86 -12q94 -13 140 -59q53 -52 53 -156z"/>
<glyph glyph-name="T" horiz-adv-x="585" unicode="T" d="M555 556h-175v-556h-175v556h-175v156h525v-156z"/>
<glyph glyph-name="U" horiz-adv-x="660" unicode="U" d="M600 250q0 -114 -78.5 -185t-192.5 -71t-191.5 71t-77.5 185v462h175v-458q0 -49 25 -76.5t69 -27.5t70 27.5t26 76.5v458h175v-462z"/>
<glyph glyph-name="V" horiz-adv-x="601" unicode="V" d="M601 712l-236 -712h-130l-235 712h181l120 -398l118 398h182z"/>
<glyph glyph-name="W" horiz-adv-x="906" unicode="W" d="M906 712l-195 -712h-143l-115 351l-115 -351h-142l-196 712h183l93 -376l115 376h124l115 -376l93 376h183z"/>
<glyph glyph-name="X" horiz-adv-x="634" unicode="X" d="M634 0h-200l-117 219l-117 -219h-200l222 365l-208 347h199l104 -201l104 201h199l-208 -347z"/>
<glyph glyph-name="Y" horiz-adv-x="605" unicode="Y" d="M605 712l-215 -422v-290h-175v290l-215 422h191l112 -256l111 256h191z"/>
<glyph glyph-name="Z" horiz-adv-x="543" unicode="Z" d="M513 0h-483v136l273 420h-261v156h471v-136l-274 -420h274v-156z"/>
<glyph glyph-name="bracketleft" horiz-adv-x="416" unicode="[" d="M376 -74h-304v860h304v-148h-140v-564h140v-148z"/>
<glyph glyph-name="backslash" horiz-adv-x="431" unicode="\" d="M431 -74h-152l-279 842h152z"/>
<glyph glyph-name="bracketright" horiz-adv-x="416" unicode="]" d="M344 -74h-304v148h140v564h-140v148h304v-860z"/>
<glyph glyph-name="asciicircum" horiz-adv-x="640" unicode="^" d="M583 375h-173l-90 165l-90 -165h-173l187 345h152z"/>
<glyph glyph-name="underscore" horiz-adv-x="640" unicode="_" d="M640 -186h-640v108h640v-108z"/>
<glyph glyph-name="grave" horiz-adv-x="500" unicode="`" d="M308 610h-99l-118 180h168z"/>
<glyph glyph-name="a" horiz-adv-x="536" unicode="a" d="M319 202v14h-83q-24 0 -38 -12t-14 -31t14 -32t40 -13q44 0 65 20q16 15 16 54zM483 0h-160v44q-26 -26 -52.5 -37.5t-67.5 -11.5q-81 0 -129 48q-47 47 -47 126q0 66 46.5 111t136.5 45h109v14q0 36 -19 51.5t-62 15.5q-30 0 -48 -8t-38 -28l-102 102q41 41 84 56.5 t112 15.5q237 0 237 -195v-349z"/>
<glyph glyph-name="b" horiz-adv-x="569" unicode="b" d="M362 269q0 67 -13 97t-55 30t-55 -30t-13 -97t13 -97t55 -30t55 30t13 97zM526 269v-25q0 -47 -2 -76t-14 -66t-34 -59q-49 -49 -131 -49q-74 0 -124 50v-44h-159v712h164v-213q45 45 120 45q81 0 130 -49q22 -22 34 -59t14 -66t2 -76v-25z"/>
<glyph glyph-name="c" horiz-adv-x="475" unicode="c" d="M457 63q-69 -69 -177 -69q-32 0 -61.5 5.5t-63.5 23.5t-59 47t-41.5 80.5t-16.5 118.5t16.5 118.5t41.5 80.5t59 47t63.5 23.5t61.5 5.5q108 0 177 -69l-111 -111q-32 32 -66 32q-30 0 -51 -21q-27 -28 -27 -106t27 -106q21 -21 51 -21q34 0 66 32z"/>
<glyph glyph-name="d" horiz-adv-x="569" unicode="d" d="M343 269q0 67 -13 97t-55 30t-55 -30t-13 -97t13 -97t55 -30t55 30t13 97zM507 0h-159v44q-50 -50 -124 -50q-82 0 -131 49q-22 22 -34 59t-14 66t-2 76v25v25q0 47 2 76t14 66t34 59q49 49 130 49q75 0 120 -45v213h164v-712z"/>
<glyph glyph-name="e" horiz-adv-x="559" unicode="e" d="M359 325q0 24 -9 42q-18 42 -71 42t-71 -42q-9 -18 -9 -42h160zM521 216h-322q0 -35 25.5 -59.5t69.5 -24.5q40 0 63.5 10.5t47.5 34.5l98 -98q-44 -44 -91 -64.5t-118 -20.5q-256 0 -256 275q0 129 66.5 202t174.5 73q113 0 177.5 -72.5t64.5 -182.5v-73z"/>
<glyph glyph-name="f" horiz-adv-x="358" unicode="f" d="M333 391h-90v-391h-164v391h-49v126h49v47q0 63 42 111t125 48h87v-138h-57q-33 0 -33 -33v-35h90v-126z"/>
<glyph glyph-name="g" horiz-adv-x="561" unicode="g" d="M335 289q0 25 -1.5 40.5t-7.5 32.5t-19.5 25.5t-35.5 8.5t-35.5 -8.5t-19.5 -25.5t-7.5 -32.5t-1.5 -40.5t1.5 -40.5t7.5 -32.5t19.5 -25.5t35.5 -8.5t35.5 8.5t19.5 25.5t7.5 32.5t1.5 40.5zM499 39q0 -96 -67 -157.5t-176 -61.5q-67 0 -115 15.5t-87 54.5l102 102 q34 -34 92 -34q47 0 67 25t20 57v39q-45 -45 -116 -45q-78 0 -126 48q-34 34 -42 77t-8 130t8 130t42 77q48 48 127 48q70 0 120 -50v44h159v-499z"/>
<glyph glyph-name="h" horiz-adv-x="573" unicode="h" d="M516 0h-164v326q0 38 -20.5 54t-42.5 16t-42.5 -16t-20.5 -54v-326h-164v712h164v-218q50 50 118 50q84 0 128 -54.5t44 -140.5v-349z"/>
<glyph glyph-name="i" horiz-adv-x="288" unicode="i" d="M226 593h-164v125h164v-125zM226 0h-164v517h164v-517z"/>
<glyph glyph-name="j" horiz-adv-x="288" unicode="j" d="M226 593h-164v125h164v-125zM226 -21q0 -63 -42 -111t-125 -48h-87v138h57q33 0 33 33v526h164v-538z"/>
<glyph glyph-name="k" horiz-adv-x="573" unicode="k" d="M573 0h-203l-112 197l-32 -35v-162h-164v712h164v-362l145 188h197l-198 -223z"/>
<glyph glyph-name="l" horiz-adv-x="341" unicode="l" d="M311 0h-87q-83 0 -125 48t-42 111v553h164v-541q0 -33 33 -33h57v-138z"/>
<glyph glyph-name="m" horiz-adv-x="875" unicode="m" d="M818 0h-164v322q0 41 -21 57.5t-45 16.5t-45 -16.5t-21 -57.5v-322h-164v322q0 41 -21 57.5t-45 16.5t-45 -16.5t-21 -57.5v-322h-164v538h160v-44q50 50 125 50q81 0 131 -57q65 57 152 57q83 0 129 -46q59 -59 59 -154v-344z"/>
<glyph glyph-name="n" horiz-adv-x="579" unicode="n" d="M522 0h-164v322q0 41 -21 57.5t-45 16.5t-45 -16.5t-21 -57.5v-322h-164v538h160v-44q50 50 125 50t121 -46q54 -54 54 -154v-344z"/>
<glyph glyph-name="o" horiz-adv-x="550" unicode="o" d="M343 269q0 88 -24 112q-15 15 -44 15t-44 -15q-24 -24 -24 -112t24 -112q15 -15 44 -15t44 15q24 24 24 112zM507 269q0 -80 -12.5 -124.5t-46.5 -81.5q-65 -69 -173 -69t-173 69q-34 37 -46.5 81.5t-12.5 124.5q0 79 13 124.5t46 81.5q65 69 173 69t173 -69 q33 -36 46 -81.5t13 -124.5z"/>
<glyph glyph-name="p" horiz-adv-x="569" unicode="p" d="M362 269q0 67 -13 97t-55 30t-55 -30t-13 -97t13 -97t55 -30t55 30t13 97zM526 269v-25q0 -47 -2 -76t-14 -66t-34 -59q-49 -49 -130 -49q-75 0 -120 45v-213h-164v712h159v-44q50 50 124 50q82 0 131 -49q22 -22 34 -59t14 -66t2 -76v-25z"/>
<glyph glyph-name="q" horiz-adv-x="569" unicode="q" d="M343 269q0 67 -13 97t-55 30t-55 -30t-13 -97t13 -97t55 -30t55 30t13 97zM507 -174h-164v213q-45 -45 -120 -45q-81 0 -130 49q-22 22 -34 59t-14 66t-2 76v25v25q0 47 2 76t14 66t34 59q49 49 131 49q74 0 124 -50v44h159v-712z"/>
<glyph glyph-name="r" horiz-adv-x="475" unicode="r" d="M475 494l-124 -126q-28 28 -59 28q-23 0 -44.5 -17t-21.5 -57v-322h-164v538h160v-44q50 50 127 50q76 0 126 -50z"/>
<glyph glyph-name="s" horiz-adv-x="504" unicode="s" d="M477 176q0 -90 -66 -136t-167 -46q-50 0 -82 3.5t-74.5 21.5t-77.5 53l106 106q45 -45 131 -45q25 0 47.5 8t22.5 27q0 30 -39 34l-83 8q-156 15 -156 156q0 84 63.5 131t150.5 47q146 0 212 -66l-101 -101q-32 32 -114 32q-27 0 -40 -10t-13 -21q0 -6 0.5 -10t9 -11 t25.5 -9l83 -8q81 -8 121.5 -52t40.5 -112z"/>
<glyph glyph-name="t" horiz-adv-x="363" unicode="t" d="M323 0h-82q-83 0 -125 48t-42 111v232h-49v126h49v154h164v-154h85v-126h-85v-220q0 -33 33 -33h52v-138z"/>
<glyph glyph-name="u" horiz-adv-x="579" unicode="u" d="M517 0h-160v44q-50 -50 -125 -50t-121 46q-54 54 -54 154v344h164v-322q0 -41 21 -57.5t45 -16.5t45 16.5t21 57.5v322h164v-538z"/>
<glyph glyph-name="v" horiz-adv-x="521" unicode="v" d="M521 538l-198 -538h-125l-198 538h172l89 -279l88 279h172z"/>
<glyph glyph-name="w" horiz-adv-x="780" unicode="w" d="M780 538l-162 -538h-131l-97 295l-97 -295h-131l-162 538h173l67 -279l93 279h114l93 -279l67 279h173z"/>
<glyph glyph-name="x" d="M556 0h-197l-82 136l-80 -136h-197l187 275l-180 263h197l73 -130l75 130h197l-180 -263z" unicode="x"/>
<glyph glyph-name="y" horiz-adv-x="514" unicode="y" d="M522 538l-223 -602q-16 -45 -42 -71q-42 -45 -121 -45h-62v148h35q23 0 35 8t20 32l15 45l-179 485h172l91 -279l87 279h172z"/>
<glyph glyph-name="z" horiz-adv-x="489" unicode="z" d="M449 0h-419v121l205 269h-193v148h407v-121l-209 -269h209v-148z"/>
<glyph glyph-name="braceleft" horiz-adv-x="518" unicode="{" d="M478 -74h-140q-77 0 -119 42q-48 48 -48 117v119q0 43 -17 60q-18 18 -56 18h-58v148h58q38 0 56 18q17 17 17 60v119q0 69 48 117q42 42 119 42h140v-148h-70q-43 0 -57 -14q-16 -16 -16 -64v-104q0 -81 -73 -100q73 -19 73 -100v-104q0 -48 16 -64q14 -14 57 -14h70 v-148z"/>
<glyph glyph-name="bar" horiz-adv-x="364" unicode="|" d="M264 -74h-164v860h164v-860z"/>
<glyph glyph-name="braceright" horiz-adv-x="518" unicode="}" d="M478 282h-58q-38 0 -56 -18q-17 -17 -17 -60v-119q0 -69 -48 -117q-42 -42 -119 -42h-140v148h70q43 0 57 14q16 16 16 64v104q0 81 73 100q-73 19 -73 100v104q0 48 -16 64q-14 14 -57 14h-70v148h140q77 0 119 -42q48 -48 48 -117v-119q0 -43 17 -60q18 -18 56 -18h58 v-148z"/>
<glyph glyph-name="asciitilde" horiz-adv-x="646" unicode="~" d="M616 283q-51 -51 -93.5 -73.5t-93.5 -22.5q-65 0 -123 34q-43 25 -84 25q-47 0 -88 -41l-104 104q51 51 92.5 73.5t92.5 22.5q65 0 123 -34q43 -25 84 -25q47 0 88 41z"/>
<glyph glyph-name="uni00A0" horiz-adv-x="222" unicode=" "/>
<glyph glyph-name="exclamdown" horiz-adv-x="366" unicode="¡" d="M247 377h-168v161h168v-161zM266 -174h-206l44 475h118z"/>
<glyph glyph-name="cent" horiz-adv-x="499" unicode="¢" d="M244 250v232q-8 -6 -12 -10q-30 -32 -30 -106q0 -73 29 -105q8 -8 13 -11zM481 174q-59 -59 -131 -76v-98h-126v98q-82 19 -134 86.5t-52 181.5t52 181.5t134 86.5v78h126v-78q72 -17 131 -76l-107 -107q-25 25 -44 33v-236q19 8 44 33z"/>
<glyph glyph-name="sterling" horiz-adv-x="597" unicode="£" d="M557 0h-462v278h-60v126h60v64q0 119 79.5 184.5t188.5 65.5q63 0 107 -17.5t87 -60.5l-115 -114q-36 36 -79 36t-68 -24.5t-25 -73.5v-60h93v-126h-93v-122h287v-156z"/>
<glyph glyph-name="currency" horiz-adv-x="674" unicode="¤" d="M432 295q0 39 -28 67t-67 28t-67 -28t-28 -67t28 -67t67 -28t67 28t28 67zM627 114l-109 -109l-73 73q-54 -26 -108 -26t-108 26l-73 -73l-109 109l73 73q-26 54 -26 108t26 108l-73 73l109 109l73 -73q54 26 108 26t108 -26l73 73l109 -109l-73 -73q26 -54 26 -108 t-26 -108z"/>
<glyph glyph-name="yen" horiz-adv-x="605" unicode="¥" d="M605 712l-125 -246h60v-126h-125l-25 -50v-50h150v-126h-150v-114h-175v114h-150v126h150v50l-25 50h-125v126h60l-125 246h191l112 -256l111 256h191z"/>
<glyph glyph-name="brokenbar" horiz-adv-x="364" unicode="¦" d="M264 -74h-164v350h164v-350zM264 436h-164v350h164v-350z"/>
<glyph glyph-name="section" horiz-adv-x="516" unicode="§" d="M319 279q0 35 -20 53q-15 13 -39 13t-39 -13q-20 -18 -20 -53t20 -53q15 -13 39 -13t39 13q20 18 20 53zM475 285q0 -46 -26 -83t-55 -57q71 -43 71 -135q0 -94 -62 -142t-144 -48q-39 0 -73.5 10t-65.5 30.5t-49 58.5t-18 88h156q0 -18 13.5 -31t36.5 -13q24 0 37 12 t13 29q0 36 -59 58l-54 20q-81 30 -116 70t-35 121q0 47 26.5 84t56.5 56q-66 40 -66 126q0 73 49.5 126t149.5 53q102 0 150.5 -51t48.5 -130h-152q0 42 -47 42q-23 0 -35 -10.5t-12 -24.5q0 -28 56 -48l54 -20q81 -30 116 -70t35 -121z"/>
<glyph glyph-name="dieresis" horiz-adv-x="500" unicode="¨" d="M204 609h-134v145h134v-145zM430 609h-134v145h134v-145z"/>
<glyph glyph-name="copyright" horiz-adv-x="822" unicode="©" d="M552 216q-60 -52 -132 -52q-75 0 -128 48.5t-53 143.5t53 143.5t128 48.5q72 0 132 -52l-67 -67q-33 27 -65 27q-36 0 -57 -25.5t-21 -74.5t21 -74.5t57 -25.5q32 0 65 27zM670 356q0 116 -73.5 190.5t-185.5 74.5t-185.5 -74.5t-73.5 -190.5t73.5 -190.5t185.5 -74.5 t185.5 74.5t73.5 190.5zM773 356q0 -150 -106 -256t-256 -106t-256 106t-106 256t106 256t256 106t256 -106t106 -256z"/>
<glyph glyph-name="ordfeminine" horiz-adv-x="457" unicode="ª" d="M276 444v12h-66q-19 0 -29.5 -9.5t-10.5 -24.5t11 -25t30 -10q37 0 52 15q13 13 13 42zM407 283h-128v35q-39 -39 -96 -39q-63 0 -102 39q-38 38 -38 100q0 53 37 89t109 36h87v11q0 29 -15 41.5t-50 12.5q-24 0 -37.5 -6t-30.5 -23l-82 82q33 33 67 45t90 12 q189 0 189 -156v-279z"/>
<glyph glyph-name="guillemotleft" horiz-adv-x="672" unicode="«" d="M612 9l-273 271l273 270v-193l-81 -77l81 -78v-193zM303 9l-273 271l273 270v-193l-79 -77l79 -78v-193z"/>
<glyph glyph-name="logicalnot" d="M513 88h-154v150h-316v154h470v-304z" unicode="¬"/>
<glyph glyph-name="uni00AD" horiz-adv-x="426" unicode="­" d="M377 218h-328v154h328v-154z"/>
<glyph glyph-name="registered" horiz-adv-x="822" unicode="®" d="M467 423q0 16 -11 27t-29 11h-52v-76h52q18 0 29 11t11 27zM580 167h-117l-57 141h-31v-141h-103v378h169q60 0 94.5 -36t34.5 -86q0 -67 -61 -98zM670 356q0 116 -73.5 190.5t-185.5 74.5t-185.5 -74.5t-73.5 -190.5t73.5 -190.5t185.5 -74.5t185.5 74.5t73.5 190.5z M773 356q0 -150 -106 -256t-256 -106t-256 106t-106 256t106 256t256 106t256 -106t106 -256z"/>
<glyph glyph-name="macron" horiz-adv-x="500" unicode="¯" d="M413 629h-326v105h326v-105z"/>
<glyph glyph-name="degree" horiz-adv-x="486" unicode="°" d="M308 534q0 27 -19 46t-46 19t-46 -19t-19 -46t19 -46t46 -19t46 19t19 46zM439 534q0 -81 -57.5 -138.5t-138.5 -57.5t-138.5 57.5t-57.5 138.5t57.5 138.5t138.5 57.5t138.5 -57.5t57.5 -138.5z"/>
<glyph glyph-name="plusminus" d="M507 0h-458v154h458v-154zM507 371h-152v-152h-154v152h-152v154h152v152h154v-152h152v-154z" unicode="±"/>
<glyph glyph-name="twosuperior" horiz-adv-x="367" unicode="²" d="M327 285h-287v104l151 154q22 22 22 40q0 13 -8 21t-21 8q-28 0 -28 -30h-116q0 64 41.5 99t102.5 35q63 0 103 -35.5t40 -97.5q0 -34 -13.5 -57t-45.5 -54l-87 -83h146v-104z"/>
<glyph glyph-name="threesuperior" horiz-adv-x="375" unicode="³" d="M335 416q0 -66 -42.5 -100.5t-105.5 -34.5q-61 0 -104.5 34.5t-42.5 105.5h115q-1 -17 8 -26.5t24 -9.5q32 0 32 35q0 14 -10 24t-23 10h-16v99h16q15 0 22.5 9.5t7.5 19.5q0 14 -8.5 22t-19.5 8q-12 0 -20.5 -8t-7.5 -23h-116q-1 61 41 98t103 37q62 0 102.5 -37 t40.5 -93q0 -49 -40 -80q44 -41 44 -90z"/>
<glyph glyph-name="acute" horiz-adv-x="500" unicode="´" d="M409 790l-118 -180h-99l49 180h168z"/>
<glyph glyph-name="uni00B5" horiz-adv-x="584" unicode="µ" d="M522 0h-160v44q-50 -50 -125 -50h-11v-168h-164v712h164v-322q0 -41 21 -57.5t45 -16.5t45 16.5t21 57.5v322h164v-538z"/>
<glyph glyph-name="paragraph" horiz-adv-x="707" unicode="¶" d="M635 -174h-164v730h-90v-730h-164v472q-70 0 -128.5 60t-58.5 145q0 104 66 156.5t175 52.5h364v-886z"/>
<glyph glyph-name="periodcentered" horiz-adv-x="294" unicode="·" d="M237 205h-180v180h180v-180z"/>
<glyph glyph-name="cedilla" horiz-adv-x="500" unicode="¸" d="M333 -56l-36 -144h-146l67 144h115z"/>
<glyph glyph-name="onesuperior" horiz-adv-x="311" unicode="¹" d="M246 285h-116v297l-95 -82v130l95 82h116v-427z"/>
<glyph glyph-name="ordmasculine" horiz-adv-x="466" unicode="º" d="M287 498q0 71 -19 90q-12 12 -35 12t-35 -12q-19 -19 -19 -90t19 -90q12 -12 35 -12t35 12q19 19 19 90zM419 498q0 -64 -10.5 -100t-37.5 -65q-51 -55 -138 -55t-138 55q-27 29 -37.5 65t-10.5 100q0 63 10.5 99.5t37.5 65.5q51 55 138 55t138 -55q27 -29 37.5 -65.5 t10.5 -99.5z"/>
<glyph glyph-name="guillemotright" horiz-adv-x="672" unicode="»" d="M333 280l-273 -271v193l80 78l-80 77v193zM642 280l-273 -271v193l79 78l-79 77v193z"/>
<glyph glyph-name="onequarter" horiz-adv-x="871" unicode="¼" d="M246 285h-116v297l-95 -82v130l95 82h116v-427zM831 53h-26v-53h-109v53h-179v110l138 264h127l-139 -264h53v37h109v-37h26v-110zM659 712l-339 -712h-126l339 712h126z"/>
<glyph glyph-name="onehalf" horiz-adv-x="904" unicode="½" d="M246 285h-116v297l-95 -82v130l95 82h116v-427zM864 0h-287v104l151 154q22 22 22 40q0 13 -8 21t-21 8q-28 0 -28 -30h-116q0 64 41.5 99t102.5 35q63 0 103 -35.5t40 -97.5q0 -34 -13.5 -57t-45.5 -54l-87 -83h146v-104zM659 712l-339 -712h-126l339 712h126z"/>
<glyph glyph-name="threequarters" horiz-adv-x="891" unicode="¾" d="M851 53h-26v-53h-109v53h-179v110l138 264h127l-139 -264h53v37h109v-37h26v-110zM335 416q0 -66 -42.5 -100.5t-105.5 -34.5q-61 0 -104.5 34.5t-42.5 105.5h115q-1 -17 8 -26.5t24 -9.5q32 0 32 35q0 14 -10 24t-23 10h-16v99h16q15 0 22.5 9.5t7.5 19.5q0 14 -8.5 22 t-19.5 8q-12 0 -20.5 -8t-7.5 -23h-116q-1 61 41 98t103 37q62 0 102.5 -37t40.5 -93q0 -49 -40 -80q44 -41 44 -90zM679 712l-339 -712h-126l339 712h126z"/>
<glyph glyph-name="questiondown" horiz-adv-x="538" unicode="¿" d="M334 377h-168v161h168v-161zM478 31q0 -98 -64.5 -154.5t-159.5 -56.5q-94 0 -159 55.5t-65 154.5q0 62 51 128l69 87q18 22 18 47v9h164v-23q0 -63 -41 -111l-70 -82q-27 -31 -27 -56q0 -27 15.5 -44t44.5 -17q60 0 60 63h164z"/>
<glyph glyph-name="Agrave" horiz-adv-x="653" unicode="À" d="M384 782h-99l-118 180h168zM391 252l-60 190l-64 -190h124zM653 0h-183l-33 106h-219l-35 -106h-183l259 712h135z"/>
<glyph glyph-name="Aacute" horiz-adv-x="653" unicode="Á" d="M485 962l-118 -180h-99l49 180h168zM391 252l-60 190l-64 -190h124zM653 0h-183l-33 106h-219l-35 -106h-183l259 712h135z"/>
<glyph glyph-name="Acircumflex" horiz-adv-x="653" unicode="Â" d="M525 782h-120l-79 83l-79 -83h-120l136 179h126zM391 252l-60 190l-64 -190h124zM653 0h-183l-33 106h-219l-35 -106h-183l259 712h135z"/>
<glyph glyph-name="Atilde" horiz-adv-x="653" unicode="Ã" d="M519 851q-34 -34 -61.5 -48.5t-61.5 -14.5q-44 0 -81 22q-29 17 -56 17q-31 0 -58 -27l-68 69q34 34 61 48.5t61 14.5q44 0 81 -22q29 -17 55 -17q31 0 58 27zM391 252l-60 190l-64 -190h124zM653 0h-183l-33 106h-219l-35 -106h-183l259 712h135z"/>
<glyph glyph-name="Adieresis" horiz-adv-x="653" unicode="Ä" d="M280 781h-134v145h134v-145zM506 781h-134v145h134v-145zM391 252l-60 190l-64 -190h124zM653 0h-183l-33 106h-219l-35 -106h-183l259 712h135z"/>
<glyph glyph-name="Aring" horiz-adv-x="653" unicode="Å" d="M378 893q0 21 -15.5 36.5t-36.5 15.5t-36.5 -15.5t-15.5 -36.5t15.5 -36.5t36.5 -15.5t36.5 15.5t15.5 36.5zM464 893q0 -57 -40.5 -97.5t-97.5 -40.5t-97.5 40.5t-40.5 97.5t40.5 97.5t97.5 40.5t97.5 -40t40.5 -98zM391 252l-60 190l-64 -190h124zM653 0h-183l-33 106 h-219l-35 -106h-183l259 712h135z"/>
<glyph glyph-name="AE" horiz-adv-x="1013" unicode="Æ" d="M477 295v261l-136 -261h136zM961 0h-484v149h-212l-77 -149h-188l370 712h591v-156h-309v-119h264v-156h-264v-125h309v-156z"/>
<glyph glyph-name="Ccedilla" horiz-adv-x="609" unicode="Ç" d="M385 -56l-36 -144h-146l67 144h115zM589 226q-19 -114 -92 -173t-178 -59q-118 0 -198 80q-32 32 -49 78t-20 82.5t-3 97.5v24v24q0 61 3 97.5t20 82.5t49 78q80 80 198 80q105 0 178 -59t92 -173h-178q-21 76 -91 76q-46 0 -69 -30q-14 -18 -20.5 -52.5t-6.5 -123.5 t6.5 -123.5t20.5 -52.5q23 -30 69 -30q70 0 91 76h178z"/>
<glyph glyph-name="Egrave" horiz-adv-x="608" unicode="È" d="M366 782h-99l-118 180h168zM556 0h-484v712h484v-156h-309v-119h264v-156h-264v-125h309v-156z"/>
<glyph glyph-name="Eacute" horiz-adv-x="608" unicode="É" d="M467 962l-118 -180h-99l49 180h168zM556 0h-484v712h484v-156h-309v-119h264v-156h-264v-125h309v-156z"/>
<glyph glyph-name="Ecircumflex" horiz-adv-x="608" unicode="Ê" d="M507 782h-120l-79 83l-79 -83h-120l136 179h126zM556 0h-484v712h484v-156h-309v-119h264v-156h-264v-125h309v-156z"/>
<glyph glyph-name="Edieresis" horiz-adv-x="608" unicode="Ë" d="M262 781h-134v145h134v-145zM488 781h-134v145h134v-145zM556 0h-484v712h484v-156h-309v-119h264v-156h-264v-125h309v-156z"/>
<glyph glyph-name="Igrave" horiz-adv-x="319" unicode="Ì" d="M218 782h-99l-118 180h168zM247 0h-175v712h175v-712z"/>
<glyph glyph-name="Iacute" horiz-adv-x="319" unicode="Í" d="M318 962l-118 -180h-99l49 180h168zM247 0h-175v712h175v-712z"/>
<glyph glyph-name="Icircumflex" horiz-adv-x="319" unicode="Î" d="M360 782h-120l-79 83l-79 -83h-120l136 179h126zM247 0h-175v712h175v-712z"/>
<glyph glyph-name="Idieresis" horiz-adv-x="319" unicode="Ï" d="M115 781h-134v145h134v-145zM341 781h-134v145h134v-145zM247 0h-175v712h175v-712z"/>
<glyph glyph-name="Eth" horiz-adv-x="679" unicode="Ð" d="M455 356q0 86 -4 115t-15 45q-27 40 -84 40h-77v-129h90v-134h-90v-137h77q57 0 84 40q11 16 15 45t4 115zM630 356v-58q0 -77 -14 -129.5t-60 -98.5q-70 -70 -192 -70h-264v293h-65v134h65v285h264q122 0 192 -70q46 -46 60 -98.5t14 -129.5v-58z"/>
<glyph glyph-name="Ntilde" horiz-adv-x="700" unicode="Ñ" d="M543 851q-34 -34 -61.5 -48.5t-61.5 -14.5q-44 0 -81 22q-29 17 -56 17q-31 0 -58 -27l-68 69q34 34 61 48.5t61 14.5q44 0 81 -22q29 -17 55 -17q31 0 58 27zM628 0h-153l-228 358v-358h-175v712h153l228 -358v358h175v-712z"/>
<glyph glyph-name="Ograve" horiz-adv-x="640" unicode="Ò" d="M378 782h-99l-118 180h168zM416 356q0 90 -6 123.5t-20 51.5q-24 31 -70 31t-70 -31q-14 -18 -20 -51.5t-6 -123.5t6 -123t20 -51q24 -32 70 -32t70 32q14 18 20 51t6 123zM591 356v-24q0 -61 -3 -97.5t-20 -82.5t-49 -78q-80 -80 -199 -80t-199 80q-32 32 -49 78 t-20 82.5t-3 97.5v24v24q0 61 3 97.5t20 82.5t49 78q80 80 199 80t199 -80q32 -32 49 -78t20 -82.5t3 -97.5v-24z"/>
<glyph glyph-name="Oacute" horiz-adv-x="640" unicode="Ó" d="M479 962l-118 -180h-99l49 180h168zM416 356q0 90 -6 123.5t-20 51.5q-24 31 -70 31t-70 -31q-14 -18 -20 -51.5t-6 -123.5t6 -123t20 -51q24 -32 70 -32t70 32q14 18 20 51t6 123zM591 356v-24q0 -61 -3 -97.5t-20 -82.5t-49 -78q-80 -80 -199 -80t-199 80 q-32 32 -49 78t-20 82.5t-3 97.5v24v24q0 61 3 97.5t20 82.5t49 78q80 80 199 80t199 -80q32 -32 49 -78t20 -82.5t3 -97.5v-24z"/>
<glyph glyph-name="Ocircumflex" horiz-adv-x="640" unicode="Ô" d="M519 782h-120l-79 83l-79 -83h-120l136 179h126zM416 356q0 90 -6 123.5t-20 51.5q-24 31 -70 31t-70 -31q-14 -18 -20 -51.5t-6 -123.5t6 -123t20 -51q24 -32 70 -32t70 32q14 18 20 51t6 123zM591 356v-24q0 -61 -3 -97.5t-20 -82.5t-49 -78q-80 -80 -199 -80t-199 80 q-32 32 -49 78t-20 82.5t-3 97.5v24v24q0 61 3 97.5t20 82.5t49 78q80 80 199 80t199 -80q32 -32 49 -78t20 -82.5t3 -97.5v-24z"/>
<glyph glyph-name="Otilde" horiz-adv-x="640" unicode="Õ" d="M513 851q-34 -34 -61.5 -48.5t-61.5 -14.5q-44 0 -81 22q-29 17 -56 17q-31 0 -58 -27l-68 69q34 34 61 48.5t61 14.5q44 0 81 -22q29 -17 55 -17q31 0 58 27zM416 356q0 90 -6 123.5t-20 51.5q-24 31 -70 31t-70 -31q-14 -18 -20 -51.5t-6 -123.5t6 -123t20 -51 q24 -32 70 -32t70 32q14 18 20 51t6 123zM591 356v-24q0 -61 -3 -97.5t-20 -82.5t-49 -78q-80 -80 -199 -80t-199 80q-32 32 -49 78t-20 82.5t-3 97.5v24v24q0 61 3 97.5t20 82.5t49 78q80 80 199 80t199 -80q32 -32 49 -78t20 -82.5t3 -97.5v-24z"/>
<glyph glyph-name="Odieresis" horiz-adv-x="640" unicode="Ö" d="M274 781h-134v145h134v-145zM500 781h-134v145h134v-145zM416 356q0 90 -6 123.5t-20 51.5q-24 31 -70 31t-70 -31q-14 -18 -20 -51.5t-6 -123.5t6 -123t20 -51q24 -32 70 -32t70 32q14 18 20 51t6 123zM591 356v-24q0 -61 -3 -97.5t-20 -82.5t-49 -78q-80 -80 -199 -80 t-199 80q-32 32 -49 78t-20 82.5t-3 97.5v24v24q0 61 3 97.5t20 82.5t49 78q80 80 199 80t199 -80q32 -32 49 -78t20 -82.5t3 -97.5v-24z"/>
<glyph glyph-name="multiply" d="M517 161l-104 -104l-135 135l-134 -135l-105 104l136 134l-136 135l104 104l134 -135l135 135l105 -104l-136 -135z" unicode="×"/>
<glyph glyph-name="Oslash" horiz-adv-x="640" unicode="Ø" d="M364 552q-20 10 -44 10q-46 0 -70 -31q-14 -18 -20 -51.5t-6 -123.5q0 -58 3 -93zM416 356q0 58 -3 93l-137 -288q19 -11 44 -11q46 0 70 32q14 18 20 51t6 123zM591 356v-24q0 -61 -3 -97.5t-20 -82.5t-49 -78q-80 -80 -199 -80q-60 0 -105 18l-27 -56h-118l55 114l-4 4 q-32 32 -49 78t-20 82.5t-3 97.5v24v24q0 61 3 97.5t20 82.5t49 78q80 80 199 80q60 0 105 -18l27 56h118l-55 -114l4 -4q32 -32 49 -78t20 -82.5t3 -97.5v-24z"/>
<glyph glyph-name="Ugrave" horiz-adv-x="660" unicode="Ù" d="M388 782h-99l-118 180h168zM600 250q0 -114 -78.5 -185t-192.5 -71t-191.5 71t-77.5 185v462h175v-458q0 -49 25 -76.5t69 -27.5t70 27.5t26 76.5v458h175v-462z"/>
<glyph glyph-name="Uacute" horiz-adv-x="660" unicode="Ú" d="M489 962l-118 -180h-99l49 180h168zM600 250q0 -114 -78.5 -185t-192.5 -71t-191.5 71t-77.5 185v462h175v-458q0 -49 25 -76.5t69 -27.5t70 27.5t26 76.5v458h175v-462z"/>
<glyph glyph-name="Ucircumflex" horiz-adv-x="660" unicode="Û" d="M529 782h-120l-79 83l-79 -83h-120l136 179h126zM600 250q0 -114 -78.5 -185t-192.5 -71t-191.5 71t-77.5 185v462h175v-458q0 -49 25 -76.5t69 -27.5t70 27.5t26 76.5v458h175v-462z"/>
<glyph glyph-name="Udieresis" horiz-adv-x="660" unicode="Ü" d="M284 781h-134v145h134v-145zM510 781h-134v145h134v-145zM600 250q0 -114 -78.5 -185t-192.5 -71t-191.5 71t-77.5 185v462h175v-458q0 -49 25 -76.5t69 -27.5t70 27.5t26 76.5v458h175v-462z"/>
<glyph glyph-name="Yacute" horiz-adv-x="605" unicode="Ý" d="M461 962l-118 -180h-99l49 180h168zM605 712l-215 -422v-290h-175v290l-215 422h191l112 -256l111 256h191z"/>
<glyph glyph-name="Thorn" horiz-adv-x="627" unicode="Þ" d="M422 360q0 29 -21 50.5t-55 21.5h-99v-144h99q34 0 55 21.5t21 50.5zM597 360q0 -94 -65 -161.5t-178 -67.5h-107v-131h-175v712h175v-123h107q113 0 178 -67.5t65 -161.5z"/>
<glyph glyph-name="germandbls" horiz-adv-x="584" unicode="ß" d="M534 173q0 -85 -42 -128q-45 -45 -138 -45h-52v138h19q23 0 35 12q13 12 13 36v129q0 23 -12 35q-12 13 -36 13h-19v126h23q44 0 44 42q0 19 -12 29q-17 15 -55 15q-42 0 -58.5 -17t-16.5 -53v-505h-165v519q0 104 65.5 151.5t174.5 47.5q107 0 169.5 -45t62.5 -136 q0 -74 -61 -109q61 -30 61 -103v-152z"/>
<glyph glyph-name="agrave" horiz-adv-x="536" unicode="à" d="M324 610h-99l-118 180h168zM319 202v14h-83q-24 0 -38 -12t-14 -31t14 -32t40 -13q44 0 65 20q16 15 16 54zM483 0h-160v44q-26 -26 -52.5 -37.5t-67.5 -11.5q-81 0 -129 48q-47 47 -47 126q0 66 46.5 111t136.5 45h109v14q0 36 -19 51.5t-62 15.5q-30 0 -48 -8t-38 -28 l-102 102q41 41 84 56.5t112 15.5q237 0 237 -195v-349z"/>
<glyph glyph-name="aacute" horiz-adv-x="536" unicode="á" d="M425 790l-118 -180h-99l49 180h168zM319 202v14h-83q-24 0 -38 -12t-14 -31t14 -32t40 -13q44 0 65 20q16 15 16 54zM483 0h-160v44q-26 -26 -52.5 -37.5t-67.5 -11.5q-81 0 -129 48q-47 47 -47 126q0 66 46.5 111t136.5 45h109v14q0 36 -19 51.5t-62 15.5q-30 0 -48 -8 t-38 -28l-102 102q41 41 84 56.5t112 15.5q237 0 237 -195v-349z"/>
<glyph glyph-name="acircumflex" horiz-adv-x="536" unicode="â" d="M465 610h-120l-79 83l-79 -83h-120l136 179h126zM319 202v14h-83q-24 0 -38 -12t-14 -31t14 -32t40 -13q44 0 65 20q16 15 16 54zM483 0h-160v44q-26 -26 -52.5 -37.5t-67.5 -11.5q-81 0 -129 48q-47 47 -47 126q0 66 46.5 111t136.5 45h109v14q0 36 -19 51.5t-62 15.5 q-30 0 -48 -8t-38 -28l-102 102q41 41 84 56.5t112 15.5q237 0 237 -195v-349z"/>
<glyph glyph-name="atilde" horiz-adv-x="536" unicode="ã" d="M459 679q-34 -34 -61.5 -48.5t-61.5 -14.5q-44 0 -81 22q-29 17 -56 17q-31 0 -58 -27l-68 69q34 34 61 48.5t61 14.5q44 0 81 -22q29 -17 55 -17q31 0 58 27zM319 202v14h-83q-24 0 -38 -12t-14 -31t14 -32t40 -13q44 0 65 20q16 15 16 54zM483 0h-160v44 q-26 -26 -52.5 -37.5t-67.5 -11.5q-81 0 -129 48q-47 47 -47 126q0 66 46.5 111t136.5 45h109v14q0 36 -19 51.5t-62 15.5q-30 0 -48 -8t-38 -28l-102 102q41 41 84 56.5t112 15.5q237 0 237 -195v-349z"/>
<glyph glyph-name="adieresis" horiz-adv-x="536" unicode="ä" d="M220 609h-134v145h134v-145zM446 609h-134v145h134v-145zM319 202v14h-83q-24 0 -38 -12t-14 -31t14 -32t40 -13q44 0 65 20q16 15 16 54zM483 0h-160v44q-26 -26 -52.5 -37.5t-67.5 -11.5q-81 0 -129 48q-47 47 -47 126q0 66 46.5 111t136.5 45h109v14q0 36 -19 51.5 t-62 15.5q-30 0 -48 -8t-38 -28l-102 102q41 41 84 56.5t112 15.5q237 0 237 -195v-349z"/>
<glyph glyph-name="aring" horiz-adv-x="536" unicode="å" d="M318 731q0 21 -15.5 36.5t-36.5 15.5t-36.5 -15.5t-15.5 -36.5t15.5 -36.5t36.5 -15.5t36.5 15.5t15.5 36.5zM404 731q0 -57 -40.5 -97.5t-97.5 -40.5t-97.5 40.5t-40.5 97.5t40.5 97.5t97.5 40.5t97.5 -40t40.5 -98zM319 202v14h-83q-24 0 -38 -12t-14 -31t14 -32 t40 -13q44 0 65 20q16 15 16 54zM483 0h-160v44q-26 -26 -52.5 -37.5t-67.5 -11.5q-81 0 -129 48q-47 47 -47 126q0 66 46.5 111t136.5 45h109v14q0 36 -19 51.5t-62 15.5q-30 0 -48 -8t-38 -28l-102 102q41 41 84 56.5t112 15.5q237 0 237 -195v-349z"/>
<glyph glyph-name="ae" horiz-adv-x="840" unicode="æ" d="M319 202v14h-83q-24 0 -38 -12t-14 -31t14 -32t40 -13q44 0 65 20q16 15 16 54zM640 325q0 24 -9 42q-18 42 -71 42t-71 -42q-9 -18 -9 -42h160zM802 216h-322q0 -35 25.5 -59.5t69.5 -24.5q40 0 63.5 10.5t47.5 34.5l98 -98q-44 -44 -91 -64.5t-118 -20.5 q-123 0 -188 65q-45 -41 -85 -53t-99 -12q-80 0 -129 49q-47 47 -47 126q0 66 46.5 111t136.5 45h109v14q0 36 -19 51.5t-62 15.5q-30 0 -48 -8t-38 -28l-102 102q41 41 84 56.5t112 15.5q112 0 170 -45q58 45 144 45q113 0 177.5 -72.5t64.5 -182.5v-73z"/>
<glyph glyph-name="ccedilla" horiz-adv-x="475" unicode="ç" d="M333 -56l-36 -144h-146l67 144h115zM457 63q-69 -69 -177 -69q-32 0 -61.5 5.5t-63.5 23.5t-59 47t-41.5 80.5t-16.5 118.5t16.5 118.5t41.5 80.5t59 47t63.5 23.5t61.5 5.5q108 0 177 -69l-111 -111q-32 32 -66 32q-30 0 -51 -21q-27 -28 -27 -106t27 -106 q21 -21 51 -21q34 0 66 32z"/>
<glyph glyph-name="egrave" horiz-adv-x="559" unicode="è" d="M341 610h-99l-118 180h168zM359 325q0 24 -9 42q-18 42 -71 42t-71 -42q-9 -18 -9 -42h160zM521 216h-322q0 -35 25.5 -59.5t69.5 -24.5q40 0 63.5 10.5t47.5 34.5l98 -98q-44 -44 -91 -64.5t-118 -20.5q-256 0 -256 275q0 129 66.5 202t174.5 73q113 0 177.5 -72.5 t64.5 -182.5v-73z"/>
<glyph glyph-name="eacute" horiz-adv-x="559" unicode="é" d="M442 790l-118 -180h-99l49 180h168zM359 325q0 24 -9 42q-18 42 -71 42t-71 -42q-9 -18 -9 -42h160zM521 216h-322q0 -35 25.5 -59.5t69.5 -24.5q40 0 63.5 10.5t47.5 34.5l98 -98q-44 -44 -91 -64.5t-118 -20.5q-256 0 -256 275q0 129 66.5 202t174.5 73 q113 0 177.5 -72.5t64.5 -182.5v-73z"/>
<glyph glyph-name="ecircumflex" horiz-adv-x="559" unicode="ê" d="M482 610h-120l-79 83l-79 -83h-120l136 179h126zM359 325q0 24 -9 42q-18 42 -71 42t-71 -42q-9 -18 -9 -42h160zM521 216h-322q0 -35 25.5 -59.5t69.5 -24.5q40 0 63.5 10.5t47.5 34.5l98 -98q-44 -44 -91 -64.5t-118 -20.5q-256 0 -256 275q0 129 66.5 202t174.5 73 q113 0 177.5 -72.5t64.5 -182.5v-73z"/>
<glyph glyph-name="edieresis" horiz-adv-x="559" unicode="ë" d="M237 609h-134v145h134v-145zM463 609h-134v145h134v-145zM359 325q0 24 -9 42q-18 42 -71 42t-71 -42q-9 -18 -9 -42h160zM521 216h-322q0 -35 25.5 -59.5t69.5 -24.5q40 0 63.5 10.5t47.5 34.5l98 -98q-44 -44 -91 -64.5t-118 -20.5q-256 0 -256 275q0 129 66.5 202 t174.5 73q113 0 177.5 -72.5t64.5 -182.5v-73z"/>
<glyph glyph-name="igrave" horiz-adv-x="288" unicode="ì" d="M218 610h-99l-118 180h168zM226 0h-164v517h164v-517z"/>
<glyph glyph-name="iacute" horiz-adv-x="288" unicode="í" d="M287 790l-118 -180h-99l49 180h168zM226 0h-164v517h164v-517z"/>
<glyph glyph-name="icircumflex" horiz-adv-x="288" unicode="î" d="M345 610h-120l-79 83l-79 -83h-120l136 179h126zM226 0h-164v517h164v-517z"/>
<glyph glyph-name="idieresis" horiz-adv-x="288" unicode="ï" d="M100 609h-134v145h134v-145zM326 609h-134v145h134v-145zM226 0h-164v517h164v-517z"/>
<glyph glyph-name="eth" horiz-adv-x="550" unicode="ð" d="M335 259q0 82 -21 103q-14 14 -39 14t-39 -14q-21 -21 -21 -103t21 -103q14 -14 39 -14t39 14q21 21 21 103zM499 259q0 -77 -12 -120.5t-45 -78.5q-62 -66 -167 -66t-167 66q-33 35 -45 78.5t-12 120.5t12 120.5t45 78.5q27 29 69 47q37 17 77 18l-20 40h-113v114h57 l-22 46h176l22 -46h97v-114h-41l26 -57q37 -82 50 -128t13 -119z"/>
<glyph glyph-name="ntilde" horiz-adv-x="579" unicode="ñ" d="M485 679q-34 -34 -61.5 -48.5t-61.5 -14.5q-44 0 -81 22q-29 17 -56 17q-31 0 -58 -27l-68 69q34 34 61 48.5t61 14.5q44 0 81 -22q29 -17 55 -17q31 0 58 27zM522 0h-164v322q0 41 -21 57.5t-45 16.5t-45 -16.5t-21 -57.5v-322h-164v538h160v-44q50 50 125 50t121 -46 q54 -54 54 -154v-344z"/>
<glyph glyph-name="ograve" horiz-adv-x="550" unicode="ò" d="M333 610h-99l-118 180h168zM343 269q0 88 -24 112q-15 15 -44 15t-44 -15q-24 -24 -24 -112t24 -112q15 -15 44 -15t44 15q24 24 24 112zM507 269q0 -80 -12.5 -124.5t-46.5 -81.5q-65 -69 -173 -69t-173 69q-34 37 -46.5 81.5t-12.5 124.5q0 79 13 124.5t46 81.5 q65 69 173 69t173 -69q33 -36 46 -81.5t13 -124.5z"/>
<glyph glyph-name="oacute" horiz-adv-x="550" unicode="ó" d="M434 790l-118 -180h-99l49 180h168zM343 269q0 88 -24 112q-15 15 -44 15t-44 -15q-24 -24 -24 -112t24 -112q15 -15 44 -15t44 15q24 24 24 112zM507 269q0 -80 -12.5 -124.5t-46.5 -81.5q-65 -69 -173 -69t-173 69q-34 37 -46.5 81.5t-12.5 124.5q0 79 13 124.5 t46 81.5q65 69 173 69t173 -69q33 -36 46 -81.5t13 -124.5z"/>
<glyph glyph-name="ocircumflex" horiz-adv-x="550" unicode="ô" d="M474 610h-120l-79 83l-79 -83h-120l136 179h126zM343 269q0 88 -24 112q-15 15 -44 15t-44 -15q-24 -24 -24 -112t24 -112q15 -15 44 -15t44 15q24 24 24 112zM507 269q0 -80 -12.5 -124.5t-46.5 -81.5q-65 -69 -173 -69t-173 69q-34 37 -46.5 81.5t-12.5 124.5 q0 79 13 124.5t46 81.5q65 69 173 69t173 -69q33 -36 46 -81.5t13 -124.5z"/>
<glyph glyph-name="otilde" horiz-adv-x="550" unicode="õ" d="M468 679q-34 -34 -61.5 -48.5t-61.5 -14.5q-44 0 -81 22q-29 17 -56 17q-31 0 -58 -27l-68 69q34 34 61 48.5t61 14.5q44 0 81 -22q29 -17 55 -17q31 0 58 27zM343 269q0 88 -24 112q-15 15 -44 15t-44 -15q-24 -24 -24 -112t24 -112q15 -15 44 -15t44 15q24 24 24 112z M507 269q0 -80 -12.5 -124.5t-46.5 -81.5q-65 -69 -173 -69t-173 69q-34 37 -46.5 81.5t-12.5 124.5q0 79 13 124.5t46 81.5q65 69 173 69t173 -69q33 -36 46 -81.5t13 -124.5z"/>
<glyph glyph-name="odieresis" horiz-adv-x="550" unicode="ö" d="M229 609h-134v145h134v-145zM455 609h-134v145h134v-145zM343 269q0 88 -24 112q-15 15 -44 15t-44 -15q-24 -24 -24 -112t24 -112q15 -15 44 -15t44 15q24 24 24 112zM507 269q0 -80 -12.5 -124.5t-46.5 -81.5q-65 -69 -173 -69t-173 69q-34 37 -46.5 81.5t-12.5 124.5 q0 79 13 124.5t46 81.5q65 69 173 69t173 -69q33 -36 46 -81.5t13 -124.5z"/>
<glyph glyph-name="divide" d="M356 434h-156v156h156v-156zM356 0h-156v156h156v-156zM513 218h-470v154h470v-154z" unicode="÷"/>
<glyph glyph-name="oslash" horiz-adv-x="550" unicode="ø" d="M309 389q-13 7 -34 7q-29 0 -44 -15q-24 -24 -24 -112q0 -36 2 -50zM343 269q0 36 -2 50l-100 -170q13 -7 34 -7q29 0 44 15q24 24 24 112zM507 269q0 -80 -12.5 -124.5t-46.5 -81.5q-65 -69 -173 -69q-57 0 -104 20l-34 -58h-93l61 104q-40 42 -51 88t-11 121 q0 79 13 124.5t46 81.5q65 69 173 69q57 0 104 -20l34 58h93l-61 -104q39 -42 50.5 -89t11.5 -120z"/>
<glyph glyph-name="ugrave" horiz-adv-x="579" unicode="ù" d="M345 610h-99l-118 180h168zM517 0h-160v44q-50 -50 -125 -50t-121 46q-54 54 -54 154v344h164v-322q0 -41 21 -57.5t45 -16.5t45 16.5t21 57.5v322h164v-538z"/>
<glyph glyph-name="uacute" horiz-adv-x="579" unicode="ú" d="M446 790l-118 -180h-99l49 180h168zM517 0h-160v44q-50 -50 -125 -50t-121 46q-54 54 -54 154v344h164v-322q0 -41 21 -57.5t45 -16.5t45 16.5t21 57.5v322h164v-538z"/>
<glyph glyph-name="ucircumflex" horiz-adv-x="579" unicode="û" d="M486 610h-120l-79 83l-79 -83h-120l136 179h126zM517 0h-160v44q-50 -50 -125 -50t-121 46q-54 54 -54 154v344h164v-322q0 -41 21 -57.5t45 -16.5t45 16.5t21 57.5v322h164v-538z"/>
<glyph glyph-name="udieresis" horiz-adv-x="579" unicode="ü" d="M241 609h-134v145h134v-145zM467 609h-134v145h134v-145zM517 0h-160v44q-50 -50 -125 -50t-121 46q-54 54 -54 154v344h164v-322q0 -41 21 -57.5t45 -16.5t45 16.5t21 57.5v322h164v-538z"/>
<glyph glyph-name="yacute" horiz-adv-x="514" unicode="ý" d="M421 790l-118 -180h-99l49 180h168zM522 538l-223 -602q-16 -45 -42 -71q-42 -45 -121 -45h-62v148h35q23 0 35 8t20 32l15 45l-179 485h172l91 -279l87 279h172z"/>
<glyph glyph-name="thorn" horiz-adv-x="571" unicode="þ" d="M362 269q0 67 -13 97t-55 30t-55 -30t-13 -97t13 -97t55 -30t55 30t13 97zM526 269v-25q0 -47 -2 -76t-14 -66t-34 -59q-49 -49 -130 -49q-75 0 -120 45v-213h-164v886h164v-213q45 45 120 45q81 0 130 -49q22 -22 34 -59t14 -66t2 -76v-25z"/>
<glyph glyph-name="OE" horiz-adv-x="952" unicode="Œ" d="M416 356q0 90 -6 123.5t-20 51.5q-24 31 -70 31t-70 -31q-14 -18 -20 -51.5t-6 -123.5t6 -123t20 -51q24 -32 70 -32t70 32q14 18 20 51t6 123zM900 0h-484v26q-34 -32 -102 -32q-64 0 -108.5 18t-84.5 58q-33 33 -50 83.5t-19.5 88t-2.5 105.5v9v9q0 68 2.5 105.5 t19.5 88t50 83.5q40 40 85 58t109 18q67 0 101 -32v26h484v-156h-309v-119h264v-156h-264v-125h309v-156z"/>
<glyph glyph-name="oe" horiz-adv-x="864" unicode="œ" d="M664 325q0 24 -9 42q-18 42 -71 42t-71 -42q-9 -18 -9 -42h160zM343 269q0 88 -24 112q-15 15 -44 15t-44 -15q-24 -24 -24 -112t24 -112q15 -15 44 -15t44 15q24 24 24 112zM826 216h-322q0 -35 25.5 -59.5t69.5 -24.5q40 0 63.5 10.5t47.5 34.5l98 -98 q-44 -44 -91 -64.5t-118 -20.5q-109 0 -171 50q-61 -50 -153 -50q-108 0 -173 69q-34 37 -46.5 81.5t-12.5 124.5q0 79 13 124.5t46 81.5q65 69 173 69q94 0 156 -53q61 53 153 53q113 0 177.5 -72.5t64.5 -182.5v-73z"/>
<glyph glyph-name="Scaron" horiz-adv-x="593" unicode="Š" d="M496 961l-136 -179h-126l-136 179h120l79 -83l79 83h120zM550 218q0 -105 -78.5 -164.5t-196.5 -59.5q-88 0 -153.5 20.5t-116.5 73.5l112 112q50 -50 159 -50q102 0 102 64q0 27 -14 42q-15 15 -47 19l-86 12q-95 14 -143 63q-49 50 -49 143q0 99 70.5 162t189.5 63 q155 0 240 -85l-110 -110q-42 42 -123 42h-12q-42 0 -64 -20t-22 -46q0 -19 14 -33q17 -17 49 -21l86 -12q94 -13 140 -59q53 -52 53 -156z"/>
<glyph glyph-name="scaron" horiz-adv-x="504" unicode="š" d="M452 789l-136 -179h-126l-136 179h120l79 -83l79 83h120zM477 176q0 -90 -66 -136t-167 -46q-50 0 -82 3.5t-74.5 21.5t-77.5 53l106 106q45 -45 131 -45q25 0 47.5 8t22.5 27q0 30 -39 34l-83 8q-156 15 -156 156q0 84 63.5 131t150.5 47q146 0 212 -66l-101 -101 q-32 32 -114 32q-27 0 -40 -10t-13 -21q0 -6 0.5 -10t9 -11t25.5 -9l83 -8q81 -8 121.5 -52t40.5 -112z"/>
<glyph glyph-name="Ydieresis" horiz-adv-x="605" unicode="Ÿ" d="M256 781h-134v145h134v-145zM482 781h-134v145h134v-145zM605 712l-215 -422v-290h-175v290l-215 422h191l112 -256l111 256h191z"/>
<glyph glyph-name="circumflex" horiz-adv-x="500" unicode="ˆ" d="M449 610h-120l-79 83l-79 -83h-120l136 179h126z"/>
<glyph glyph-name="tilde" horiz-adv-x="500" unicode="˜" d="M468 679q-34 -34 -61.5 -48.5t-61.5 -14.5q-44 0 -81 22q-29 17 -56 17q-31 0 -58 -27l-68 69q34 34 61 48.5t61 14.5q44 0 81 -22q29 -17 55 -17q31 0 58 27z"/>
<glyph glyph-name="Alpha" horiz-adv-x="653" unicode="Α" d="M391 252l-60 190l-64 -190h124zM653 0h-183l-33 106h-219l-35 -106h-183l259 712h135z"/>
<glyph glyph-name="Beta" horiz-adv-x="653" unicode="Β" d="M429 220q0 26 -15.5 44t-48.5 18h-118v-125h118q33 0 48.5 18.5t15.5 44.5zM419 497q0 24 -15 41t-48 17h-109v-116h109q33 0 48 17t15 41zM604 210q0 -99 -62 -154.5t-160 -55.5h-310v712h295q109 0 168 -56t59 -150q0 -88 -78 -141q16 -10 27 -18.5t27 -27t25 -46.5 t9 -63z"/>
<glyph glyph-name="Gamma" horiz-adv-x="571" unicode="Γ" d="M541 556h-294v-556h-175v712h469v-156z"/>
<glyph glyph-name="Delta" horiz-adv-x="653" unicode="Δ" d="M424 146l-93 296l-99 -296h192zM653 0h-653l259 712h135z"/>
<glyph glyph-name="Epsilon" horiz-adv-x="608" unicode="Ε" d="M556 0h-484v712h484v-156h-309v-119h264v-156h-264v-125h309v-156z"/>
<glyph glyph-name="Zeta" horiz-adv-x="543" unicode="Ζ" d="M513 0h-483v136l273 420h-261v156h471v-136l-274 -420h274v-156z"/>
<glyph glyph-name="Eta" horiz-adv-x="680" unicode="Η" d="M608 0h-175v282h-186v-282h-175v712h175v-274h186v274h175v-712z"/>
<glyph glyph-name="Theta" horiz-adv-x="640" unicode="Θ" d="M415 292h-190q3 -82 25 -110q24 -32 70 -32t70 32q22 28 25 110zM414 438q-4 67 -24 93q-24 31 -70 31t-70 -31q-20 -26 -24 -93h188zM591 356v-24q0 -61 -3 -97.5t-20 -82.5t-49 -78q-80 -80 -199 -80t-199 80q-32 32 -49 78t-20 82.5t-3 97.5v24v24q0 61 3 97.5 t20 82.5t49 78q80 80 199 80t199 -80q32 -32 49 -78t20 -82.5t3 -97.5v-24z"/>
<glyph glyph-name="Iota" horiz-adv-x="319" unicode="Ι" d="M247 0h-175v712h175v-712z"/>
<glyph glyph-name="Kappa" horiz-adv-x="673" unicode="Κ" d="M673 0h-204l-164 292l-60 -69v-223h-173v712h173v-252l206 252h214l-243 -288z"/>
<glyph glyph-name="Lambda" horiz-adv-x="633" unicode="Λ" d="M633 0h-183l-129 436l-138 -436h-183l249 712h135z"/>
<glyph glyph-name="Mu" horiz-adv-x="808" unicode="Μ" d="M736 0h-175v341l-101 -176h-112l-101 176v-341h-175v712h172l160 -314l160 314h172v-712z"/>
<glyph glyph-name="Nu" horiz-adv-x="700" unicode="Ν" d="M628 0h-153l-228 358v-358h-175v712h153l228 -358v358h175v-712z"/>
<glyph glyph-name="Xi" horiz-adv-x="609" unicode="Ξ" d="M557 0h-505v156h165v125h-120v156h120v119h-165v156h505v-156h-165v-119h120v-156h-120v-125h165v-156z"/>
<glyph glyph-name="Omicron" horiz-adv-x="640" unicode="Ο" d="M416 356q0 90 -6 123.5t-20 51.5q-24 31 -70 31t-70 -31q-14 -18 -20 -51.5t-6 -123.5t6 -123t20 -51q24 -32 70 -32t70 32q14 18 20 51t6 123zM591 356v-24q0 -61 -3 -97.5t-20 -82.5t-49 -78q-80 -80 -199 -80t-199 80q-32 32 -49 78t-20 82.5t-3 97.5v24v24 q0 61 3 97.5t20 82.5t49 78q80 80 199 80t199 -80q32 -32 49 -78t20 -82.5t3 -97.5v-24z"/>
<glyph glyph-name="Pi" horiz-adv-x="680" unicode="Π" d="M608 0h-175v556h-186v-556h-175v712h536v-712z"/>
<glyph glyph-name="Rho" horiz-adv-x="627" unicode="Ρ" d="M422 483q0 29 -21 50.5t-55 21.5h-99v-144h99q34 0 55 21.5t21 50.5zM597 483q0 -94 -65 -161.5t-178 -67.5h-107v-254h-175v712h282q113 0 178 -67.5t65 -161.5z"/>
<glyph glyph-name="Sigma" horiz-adv-x="543" unicode="Σ" d="M517 556h-261l118 -190l-135 -210h274v-156h-483v136l153 230l-137 210v136h471v-156z"/>
<glyph glyph-name="Tau" horiz-adv-x="585" unicode="Τ" d="M555 556h-175v-556h-175v556h-175v156h525v-156z"/>
<glyph glyph-name="Upsilon" horiz-adv-x="605" unicode="Υ" d="M605 712l-215 -422v-290h-175v290l-215 422h191l112 -256l111 256h191z"/>
<glyph glyph-name="Phi" horiz-adv-x="801" unicode="Φ" d="M313 210v292q-52 0 -75 -36q-23 -34 -23 -110t23 -110q23 -36 75 -36zM586 356q0 76 -23 110q-23 36 -75 36v-292q52 0 75 36q23 34 23 110zM761 356q0 -149 -73 -222q-80 -80 -200 -80v-54h-175v54q-120 0 -200 80q-73 73 -73 222t73 222q80 80 200 80v54h175v-54 q120 0 200 -80q73 -73 73 -222z"/>
<glyph glyph-name="Chi" horiz-adv-x="634" unicode="Χ" d="M634 0h-200l-117 219l-117 -219h-200l222 365l-208 347h199l104 -201l104 201h199l-208 -347z"/>
<glyph glyph-name="Psi" horiz-adv-x="791" unicode="Ψ" d="M746 366q0 -90 -72 -162q-77 -77 -191 -80v-124h-175v124q-114 3 -191 80q-72 72 -72 162v346h175v-346q0 -32 27.5 -57.5t60.5 -28.5v432h175v-432q33 3 60.5 28.5t27.5 57.5v346h175v-346z"/>
<glyph glyph-name="alpha" horiz-adv-x="569" unicode="α" d="M343 269q0 67 -13 97t-55 30t-55 -30t-13 -97t13 -97t55 -30t55 30t13 97zM507 0h-159v44q-50 -50 -124 -50q-82 0 -131 49q-22 22 -34 59t-14 66t-2 76v25v25q0 47 2 76t14 66t34 59q49 49 130 49q75 0 125 -50v44h159v-538z"/>
<glyph glyph-name="beta" horiz-adv-x="584" unicode="β" d="M373 518q0 25 -19 42q-21 19 -49 19q-42 0 -60 -18.5t-18 -55.5v-293q0 -35 22 -53t41 -18q41 0 60 19q21 21 21 77v12q0 48 -26 64q-20 12 -49 12h-44v124h62q29 0 44 20.5t15 48.5zM535 230q0 -129 -47 -180q-52 -56 -145 -56q-74 0 -124 50v-44h-157v514q0 104 66 154 t174 50q98 0 161.5 -48.5t63.5 -132.5q0 -74 -24 -106t-51 -44q33 -15 51 -40q32 -46 32 -117z"/>
<glyph glyph-name="gamma" horiz-adv-x="521" unicode="γ" d="M521 538l-180 -519v-193h-162v193l-179 519h172l89 -312l88 312h172z"/>
<glyph glyph-name="delta" horiz-adv-x="534" unicode="δ" d="M327 259q0 82 -21 103q-14 14 -39 14t-39 -14q-21 -21 -21 -103t21 -103q14 -14 39 -14t39 14q21 21 21 103zM491 259q0 -77 -12 -120.5t-45 -78.5q-62 -66 -167 -66t-167 66q-33 35 -45 78.5t-12 120.5q0 78 12 122.5t44 78.5q45 49 102 49h8q16 0 27 -5l-127 103v105 h351v-113h-154l89 -75q60 -51 78 -111.5t18 -153.5z"/>
<glyph glyph-name="epsilon" horiz-adv-x="526" unicode="ε" d="M516 90q-58 -60 -105.5 -78t-133.5 -18q-103 0 -172.5 40.5t-69.5 125.5q0 27 7.5 48.5t23.5 37t23 20.5t23 15q-55 39 -55 107q0 67 65 111t164 44q110 0 206 -77l-87 -109q-21 18 -29.5 24.5t-34 17.5t-50.5 11q-73 0 -73 -46q0 -13 12 -21t31 -8h103v-123h-112 q-51 0 -51 -33q0 -24 26.5 -36.5t62.5 -12.5q40 0 68 12.5t58 43.5z"/>
<glyph glyph-name="zeta" horiz-adv-x="512" unicode="ζ" d="M488 -2q0 -11 -2 -25t-13 -38.5t-28.5 -43.5t-54 -33.5t-84.5 -14.5h-25v120h14q25 0 33.5 5t8.5 18q0 16 -45 16h-18q-234 0 -234 169q0 66 46 127t110 92h-124v148h407v-148h-23q-85 -30 -165.5 -87t-80.5 -112q0 -52 66 -52h38q77 0 125.5 -33t48.5 -108z"/>
<glyph glyph-name="eta" horiz-adv-x="579" unicode="η" d="M522 0h-164v322q0 41 -21 57.5t-45 16.5t-45 -16.5t-21 -57.5v-322h-164v538h160v-44q50 50 125 50t121 -46q54 -54 54 -154v-344z"/>
<glyph glyph-name="theta" horiz-adv-x="576" unicode="θ" d="M360 293h-144q1 -98 15 -119q21 -32 57 -32t57 32q14 21 15 119zM360 430q-1 89 -15 109q-20 31 -57 31t-57 -31q-14 -20 -15 -109h144zM526 356v-27q0 -62 -2.5 -98t-17 -83t-42.5 -79q-65 -75 -176 -75t-176 75q-28 32 -42.5 79t-17 83t-2.5 98v27v27q0 62 2.5 98 t17 83t42.5 79q65 75 176 75t176 -75q28 -32 42.5 -79t17 -83t2.5 -98v-27z"/>
<glyph glyph-name="iota" horiz-adv-x="341" unicode="ι" d="M311 0h-87q-83 0 -125 48t-42 111v379h164v-367q0 -33 33 -33h57v-138z"/>
<glyph glyph-name="kappa" horiz-adv-x="573" unicode="κ" d="M573 0h-203l-112 197l-32 -35v-162h-164v538h164v-188l145 188h197l-198 -223z"/>
<glyph glyph-name="lambda" horiz-adv-x="531" unicode="λ" d="M539 0h-77q-34 0 -60.5 11t-41 23t-28 39.5t-17.5 40.5t-13 45l-34 120l-96 -279h-172l187 485l-14 45q-7 24 -19 32t-35 8h-35v148h64q78 0 120 -45q25 -27 41 -71l150 -428q4 -13 7 -19t10.5 -11.5t17.5 -5.5h45v-138z"/>
<glyph glyph-name="mu" horiz-adv-x="584" unicode="μ" d="M522 0h-160v44q-50 -50 -125 -50h-11v-168h-164v712h164v-322q0 -41 21 -57.5t45 -16.5t45 16.5t21 57.5v322h164v-538z"/>
<glyph glyph-name="nu" horiz-adv-x="521" unicode="ν" d="M521 538l-198 -538h-125l-198 538h172l89 -279l88 279h172z"/>
<glyph glyph-name="xi" horiz-adv-x="501" unicode="ξ" d="M498 641l-83 -108q-46 56 -125 56q-76 0 -76 -71q0 -32 20.5 -49t53.5 -17h121v-135h-101q-106 0 -106 -88q0 -90 92 -90h18q174 0 174 -137q0 -11 -2 -25t-13 -39.5t-28.5 -45t-54 -34.5t-84.5 -15h-25v120h14q25 0 33.5 7t8.5 21q0 10 -10 12.5t-35 2.5h-18 q-234 0 -234 198q0 132 119 184q-43 13 -70.5 52t-27.5 85q0 95 63.5 146.5t159.5 51.5q67 0 125 -22.5t91 -59.5z"/>
<glyph glyph-name="omicron" horiz-adv-x="550" unicode="ο" d="M343 269q0 88 -24 112q-15 15 -44 15t-44 -15q-24 -24 -24 -112t24 -112q15 -15 44 -15t44 15q24 24 24 112zM507 269q0 -80 -12.5 -124.5t-46.5 -81.5q-65 -69 -173 -69t-173 69q-34 37 -46.5 81.5t-12.5 124.5q0 79 13 124.5t46 81.5q65 69 173 69t173 -69 q33 -36 46 -81.5t13 -124.5z"/>
<glyph glyph-name="pi" horiz-adv-x="592" unicode="π" d="M530 0h-164v382h-140v-382h-164v538h468v-538z"/>
<glyph glyph-name="rho" horiz-adv-x="550" unicode="ρ" d="M343 269q0 67 -13 97t-55 30t-55 -30t-13 -97t13 -97t55 -30t55 30t13 97zM507 269q0 -73 -11.5 -122.5t-50.5 -88.5q-64 -64 -147 -64q-31 0 -56 12.5t-35 23.5v-204h-164v441q0 130 44 190q24 32 69.5 59.5t113.5 27.5q112 0 173 -63q30 -31 44.5 -69t17 -65.5 t2.5 -77.5z"/>
<glyph glyph-name="sigma1" horiz-adv-x="475" unicode="ς" d="M457 475l-111 -111q-32 32 -66 32q-30 0 -51 -21q-27 -28 -27 -106q0 -57 23.5 -80.5t74.5 -34.5q135 -28 135 -154q0 -13 -1.5 -25.5t-13 -39t-31 -45t-62 -33.5t-99.5 -15v124q15 0 23.5 0.5t17 3.5t12 9t3.5 16q0 22 -67 31q-179 26 -179 243q0 67 16.5 118.5 t41.5 80.5t59 47t63.5 23.5t61.5 5.5q108 0 177 -69z"/>
<glyph glyph-name="sigma" horiz-adv-x="575" unicode="σ" d="M343 269q0 96 -24 120q-13 13 -44 13q-28 0 -44 -16q-24 -24 -24 -117q0 -88 24 -112q15 -15 44 -15t44 15q24 24 24 112zM542 399h-79q18 -15 31 -54t13 -76q0 -80 -12.5 -124.5t-46.5 -81.5q-65 -69 -173 -69t-173 69q-34 37 -46.5 81.5t-12.5 124.5q0 79 13 124.5 t46 81.5q59 63 171 63h269v-139z"/>
<glyph glyph-name="tau" horiz-adv-x="420" unicode="τ" d="M400 390h-108v-390h-164v390h-108v148h380v-148z"/>
<glyph glyph-name="upsilon" horiz-adv-x="560" unicode="υ" d="M510 269q0 -81 -12 -125.5t-45 -80.5q-65 -69 -173 -69t-173 69q-33 36 -45 80.5t-12 125.5v269h164v-322q0 -41 21 -57.5t45 -16.5t45 16.5t21 57.5v322h164v-269z"/>
<glyph glyph-name="phi" horiz-adv-x="723" unicode="φ" d="M516 269q0 43 -3 68t-19 46t-47 21v-269q41 2 55 35t14 99zM680 268q0 -122 -57 -196t-176 -79v-167h-164v167q-120 6 -180 81.5t-60 195.5q0 183 168 274l61 -107q-65 -53 -65 -166v-6q0 -122 76 -130v403h128q134 0 194 -52q75 -65 75 -218z"/>
<glyph glyph-name="chi" d="M556 0h-197l-82 136l-80 -136h-197l187 275l-180 263h197l73 -130l75 130h197l-180 -263z" unicode="χ"/>
<glyph glyph-name="psi" horiz-adv-x="735" unicode="ψ" d="M680 269q0 -81 -12 -125.5t-45 -80.5q-59 -63 -173 -63v-174h-164v174q-115 0 -174 63q-33 36 -45 80.5t-12 125.5v269h164v-322q0 -41 22.5 -61.5t44.5 -20.5v404h164v-404q22 0 44 20.5t22 61.5v322h164v-269z"/>
<glyph glyph-name="afii10023" horiz-adv-x="608" unicode="Ё" d="M262 781h-134v145h134v-145zM488 781h-134v145h134v-145zM556 0h-484v712h484v-156h-309v-119h264v-156h-264v-125h309v-156z"/>
<glyph glyph-name="afii10051" horiz-adv-x="750" unicode="Ђ" d="M350 305v-305h-175v556h-145v156h525v-156h-205v-100h112q106 0 172 -61.5t66 -161.5v-10q0 -100 -66 -161.5t-172 -61.5h-42v150h29q33 0 54.5 21t21.5 52v10q0 31 -21.5 51.5t-54.5 20.5h-99z"/>
<glyph glyph-name="afii10052" d="M427 962l-118 -180h-99l49 180h168zM531 556h-284v-556h-175v712h459v-156z" unicode="Ѓ"/>
<glyph glyph-name="afii10053" horiz-adv-x="609" unicode="Є" d="M414 222h174q-18 -111 -91 -169.5t-178 -58.5q-118 0 -198 80q-32 32 -49 78t-20 82.5t-3 97.5v24v24q0 61 3 97.5t20 82.5t49 78q80 80 198 80q105 0 178 -58.5t91 -169.5h-174q-23 76 -94 76q-47 0 -72 -32q-22 -28 -26 -101h189v-152h-190q4 -73 27 -103 q25 -32 72 -32q71 0 94 76z"/>
<glyph glyph-name="afii10054" horiz-adv-x="593" unicode="Ѕ" d="M550 218q0 -105 -78.5 -164.5t-196.5 -59.5q-88 0 -153.5 20.5t-116.5 73.5l112 112q50 -50 159 -50q102 0 102 64q0 27 -14 42q-15 15 -47 19l-86 12q-95 14 -143 63q-49 50 -49 143q0 99 70.5 162t189.5 63q155 0 240 -85l-110 -110q-42 42 -123 42h-12q-42 0 -64 -20 t-22 -46q0 -19 14 -33q17 -17 49 -21l86 -12q94 -13 140 -59q53 -52 53 -156z"/>
<glyph glyph-name="afii10055" horiz-adv-x="319" unicode="І" d="M247 0h-175v712h175v-712z"/>
<glyph glyph-name="afii10056" horiz-adv-x="319" unicode="Ї" d="M114 781h-134v145h134v-145zM340 781h-134v145h134v-145zM247 0h-175v712h175v-712z"/>
<glyph glyph-name="afii10057" horiz-adv-x="516" unicode="Ј" d="M454 244q0 -119 -79.5 -184.5t-188.5 -65.5q-63 0 -107 17.5t-87 60.5l115 114q36 -36 79 -36t68 24.5t25 73.5v464h175v-468z"/>
<glyph glyph-name="afii10058" horiz-adv-x="984" unicode="Љ" d="M136 712h468v-254h112q106 0 172 -64.5t66 -164.5t-66.5 -164.5t-171.5 -64.5h-287v556h-124v-186q0 -147 -26 -228.5t-73.5 -111.5t-128.5 -30h-67v156h21q34 0 55.5 15t35.5 63.5t14 135.5v342zM779 229q0 31 -21.5 51.5t-54.5 20.5h-99v-145h99q33 0 54.5 21t21.5 52z "/>
<glyph glyph-name="afii10059" horiz-adv-x="988" unicode="Њ" d="M783 229q0 31 -21.5 51.5t-54.5 20.5h-99v-145h99q33 0 54.5 21t21.5 52zM433 302h-186v-302h-175v712h175v-254h186v254h175v-254h112q106 0 172 -64.5t66 -164.5t-66.5 -164.5t-171.5 -64.5h-287v302z"/>
<glyph glyph-name="afii10060" horiz-adv-x="750" unicode="Ћ" d="M700 0h-175v233q0 31 -21.5 51.5t-54.5 20.5h-99v-305h-175v556h-145v156h525v-156h-205v-100h112q106 0 172 -61.5t66 -161.5v-233z"/>
<glyph glyph-name="afii10061" horiz-adv-x="653" unicode="Ќ" d="M488 962l-118 -180h-99l49 180h168zM247 0h-175v712h175v-337l192 337h201l-210 -331l233 -381h-206l-210 373v-373z"/>
<glyph glyph-name="afii10062" horiz-adv-x="601" unicode="Ў" d="M601 712l-250 -587q-54 -125 -170 -125h-97v156h62q62 0 79 69l-225 487h184l125 -298l113 298h179zM478 898q-1 -55 -29 -91t-64 -48.5t-79 -12.5t-79 12.5t-64 48.5t-29 91h119q3 -53 53 -53t53 53h119z"/>
<glyph glyph-name="afii10145" horiz-adv-x="680" unicode="Џ" d="M424 0v-144h-168v144h-184v712h175v-556h186v556h175v-712h-184z"/>
<glyph glyph-name="afii10017" horiz-adv-x="653" unicode="А" d="M391 252l-60 190l-64 -190h124zM653 0h-183l-33 106h-219l-35 -106h-183l259 712h135z"/>
<glyph glyph-name="afii10018" horiz-adv-x="653" unicode="Б" d="M429 229q0 31 -19.5 51.5t-51.5 20.5h-111v-144h111q32 0 51.5 20.5t19.5 51.5zM604 229q0 -102 -64 -165.5t-174 -63.5h-294v712h486v-156h-311v-98h119q110 0 174 -63.5t64 -165.5z"/>
<glyph glyph-name="afii10019" horiz-adv-x="653" unicode="В" d="M429 220q0 29 -17 45.5t-47 16.5h-118v-125h118q30 0 47 17t17 46zM419 497q0 27 -16.5 42.5t-46.5 15.5h-109v-116h109q30 0 46.5 15.5t16.5 42.5zM604 209q0 -95 -60.5 -152t-161.5 -57h-310v712h295q104 0 165.5 -54t61.5 -146q0 -90 -78 -147q47 -30 67.5 -66 t20.5 -90z"/>
<glyph glyph-name="afii10020" d="M531 556h-284v-556h-175v712h459v-156z" unicode="Г"/>
<glyph glyph-name="afii10021" horiz-adv-x="709" unicode="Д" d="M434 156v400h-112v-20q0 -200 -64 -380h176zM690 -144h-168v144h-344v-144h-168v300h70q38 102 55 221.5t17 304.5v30h457v-556h81v-300z"/>
<glyph glyph-name="afii10022" horiz-adv-x="608" unicode="Е" d="M556 0h-484v712h484v-156h-309v-119h264v-156h-264v-125h309v-156z"/>
<glyph glyph-name="afii10024" horiz-adv-x="947" unicode="Ж" d="M191 0h-201l218 381l-195 331h196l177 -336v336h175v-336l177 336h196l-195 -331l218 -381h-201l-195 373v-373h-175v373z"/>
<glyph glyph-name="afii10025" horiz-adv-x="600" unicode="З" d="M288 -6q-105 0 -178 58.5t-91 169.5h174q23 -76 94 -76q42 0 65 20t23 52q0 35 -21.5 55t-64.5 20h-94v142h94q36 0 57 18.5t21 49.5q0 29 -21.5 47t-57.5 18q-71 0 -94 -78h-174q18 111 91 169.5t178 58.5q111 0 181.5 -55.5t70.5 -146.5q0 -46 -24 -85t-62 -63 q43 -22 69.5 -63t26.5 -93q0 -98 -73.5 -158t-189.5 -60z"/>
<glyph glyph-name="afii10026" horiz-adv-x="700" unicode="И" d="M628 0h-175v388l-228 -388h-153v712h175v-388l228 388h153v-712z"/>
<glyph glyph-name="afii10027" horiz-adv-x="700" unicode="Й" d="M628 0h-175v388l-228 -388h-153v712h175v-388l228 388h153v-712zM524 898q-1 -55 -29 -91t-64 -48.5t-79 -12.5t-79 12.5t-64 48.5t-29 91h119q3 -53 53 -53t53 53h119z"/>
<glyph glyph-name="afii10028" horiz-adv-x="653" unicode="К" d="M247 0h-175v712h175v-337l192 337h201l-210 -331l233 -381h-206l-210 373v-373z"/>
<glyph glyph-name="afii10029" horiz-adv-x="676" unicode="Л" d="M604 0h-175v556h-124v-186q0 -147 -26 -228.5t-73.5 -111.5t-128.5 -30h-67v156h21q34 0 55.5 15t35.5 63.5t14 135.5v342h468v-712z"/>
<glyph glyph-name="afii10030" horiz-adv-x="808" unicode="М" d="M736 0h-175v341l-101 -176h-112l-101 176v-341h-175v712h172l160 -314l160 314h172v-712z"/>
<glyph glyph-name="afii10031" horiz-adv-x="680" unicode="Н" d="M608 0h-175v282h-186v-282h-175v712h175v-274h186v274h175v-712z"/>
<glyph glyph-name="afii10032" horiz-adv-x="640" unicode="О" d="M416 337v49q0 111 -26 145q-25 31 -70 31t-70 -31q-26 -34 -26 -145v-49q0 -122 26 -155q26 -32 70 -32t70 32q26 33 26 155zM591 419v-92q0 -58 -3 -93t-20 -80.5t-49 -79.5q-76 -80 -198 -80q-123 0 -200 80q-33 34 -50 82t-19.5 81.5t-2.5 91.5v52q0 105 15 159.5 t57 97.5q76 80 198 80q123 0 200 -80q72 -75 72 -219z"/>
<glyph glyph-name="afii10033" horiz-adv-x="680" unicode="П" d="M608 0h-175v556h-186v-556h-175v712h536v-712z"/>
<glyph glyph-name="afii10034" horiz-adv-x="627" unicode="Р" d="M422 483q0 31 -21.5 51.5t-54.5 20.5h-99v-144h99q33 0 54.5 20.5t21.5 51.5zM597 483q0 -100 -68.5 -164.5t-174.5 -64.5h-107v-254h-175v712h282q106 0 174.5 -64.5t68.5 -164.5z"/>
<glyph glyph-name="afii10035" horiz-adv-x="609" unicode="С" d="M589 226q-19 -114 -92 -173t-178 -59q-118 0 -198 80q-32 32 -49 78t-20 82.5t-3 97.5v24v24q0 61 3 97.5t20 82.5t49 78q80 80 198 80q105 0 178 -59t92 -173h-178q-21 76 -91 76q-46 0 -69 -30q-14 -18 -20.5 -52.5t-6.5 -123.5t6.5 -123.5t20.5 -52.5q23 -30 69 -30 q70 0 91 76h178z"/>
<glyph glyph-name="afii10036" horiz-adv-x="585" unicode="Т" d="M555 556h-175v-556h-175v556h-175v156h525v-156z"/>
<glyph glyph-name="afii10037" horiz-adv-x="601" unicode="У" d="M601 712l-250 -587q-54 -125 -170 -125h-97v156h62q62 0 79 69l-225 487h184l125 -298l113 298h179z"/>
<glyph glyph-name="afii10038" horiz-adv-x="859" unicode="Ф" d="M517 -6h-175v85q-302 12 -302 304q0 134 76 209t226 82v74h175v-74q150 -7 226 -82t76 -209q0 -292 -302 -304v-85zM345 225v299q-70 -5 -100 -38t-30 -111q0 -74 30.5 -108.5t99.5 -41.5zM514 524v-299q69 7 99.5 41.5t30.5 108.5q0 78 -30 111t-100 38z"/>
<glyph glyph-name="afii10039" horiz-adv-x="634" unicode="Х" d="M634 0h-200l-117 219l-117 -219h-200l222 365l-208 347h199l104 -201l104 201h199l-208 -347z"/>
<glyph glyph-name="afii10040" horiz-adv-x="708" unicode="Ц" d="M689 -144h-168v144h-449v712h175v-556h186v556h175v-556h81v-300z"/>
<glyph glyph-name="afii10041" horiz-adv-x="651" unicode="Ч" d="M579 0h-175v253q-6 -1 -28 -4t-38.5 -5t-45 -4t-57.5 -2q-71 0 -124.5 46.5t-53.5 124.5v303h175v-254q0 -29 17 -46t47 -17q63 0 108 9v308h175v-712z"/>
<glyph glyph-name="afii10042" horiz-adv-x="983" unicode="Ш" d="M911 0h-839v712h175v-556h157v556h175v-556h157v556h175v-712z"/>
<glyph glyph-name="afii10043" horiz-adv-x="1011" unicode="Щ" d="M992 -144h-168v144h-752v712h175v-556h157v556h175v-556h157v556h175v-556h81v-300z"/>
<glyph glyph-name="afii10044" horiz-adv-x="726" unicode="Ъ" d="M521 229q0 31 -21.5 51.5t-54.5 20.5h-99v-145h99q33 0 54.5 21t21.5 52zM696 229q0 -100 -66.5 -164.5t-171.5 -64.5h-287v556h-141v156h316v-254h112q106 0 172 -64.5t66 -164.5z"/>
<glyph glyph-name="afii10045" horiz-adv-x="910" unicode="Ы" d="M422 229q0 31 -21.5 51.5t-54.5 20.5h-99v-145h99q33 0 54.5 21t21.5 52zM597 229q0 -100 -66.5 -164.5t-171.5 -64.5h-287v712h175v-254h112q106 0 172 -64.5t66 -164.5zM838 0h-175v712h175v-712z"/>
<glyph glyph-name="afii10046" horiz-adv-x="627" unicode="Ь" d="M422 229q0 31 -21.5 51.5t-54.5 20.5h-99v-145h99q33 0 54.5 21t21.5 52zM597 229q0 -100 -66.5 -164.5t-171.5 -64.5h-287v712h175v-254h112q106 0 172 -64.5t66 -164.5z"/>
<glyph glyph-name="afii10047" horiz-adv-x="609" unicode="Э" d="M21 222h174q23 -76 94 -76q47 0 72 32q23 30 27 103h-190v152h189q-4 73 -26 101q-25 32 -72 32q-71 0 -94 -76h-174q18 111 91 169.5t178 58.5q118 0 198 -80q32 -32 49 -78t20 -82.5t3 -97.5v-24v-24q0 -61 -3 -97.5t-20 -82.5t-49 -78q-80 -80 -198 -80 q-105 0 -178 58.5t-91 169.5z"/>
<glyph glyph-name="afii10048" horiz-adv-x="920" unicode="Ю" d="M696 337v49q0 111 -26 145q-25 31 -70 31t-70 -31q-26 -34 -26 -145v-49q0 -122 26 -155q26 -32 70 -32t70 32q26 33 26 155zM871 419v-78q0 -65 -2.5 -99.5t-19 -83t-50.5 -84.5q-76 -80 -198 -80q-123 0 -200 80q-40 42 -55 92.5t-17 115.5h-82v-282h-175v712h175v-274 h83q4 74 19.5 118t51.5 82q76 80 198 80q123 0 200 -80q72 -75 72 -219z"/>
<glyph glyph-name="afii10049" horiz-adv-x="649" unicode="Я" d="M402 411v148h-101q-33 0 -54.5 -21t-21.5 -52t21.5 -53t54.5 -22h101zM331 254l-103 -254h-208l137 291q-49 30 -77 80.5t-28 111.5q0 104 68 166.5t175 62.5h282v-712h-175v254h-71z"/>
<glyph glyph-name="afii10065" horiz-adv-x="536" unicode="а" d="M319 216h-83q-23 0 -37.5 -12t-14.5 -31q0 -45 61 -45q38 0 56 17.5t18 56.5v14zM483 0h-160v44q-29 -28 -53 -38q-28 -11 -65 -11q-81 0 -129.5 47t-48.5 125q0 73 49 115.5t134 42.5h109v14q0 36 -18.5 51.5t-62.5 15.5q-29 0 -46.5 -7t-39.5 -29l-102 102q41 39 76 53 q45 19 117 19q240 0 240 -195v-349z"/>
<glyph glyph-name="afii10066" d="M322 514q79 0 124 -40q70 -63 70 -209q0 -137 -65 -207q-59 -64 -164 -64q-116 0 -177 64q-58 62 -58 224q0 66 0.5 101t4 80t10.5 70t19.5 53t32 47.5t46.5 37.5q21 14 51.5 23.5t70.5 14t64.5 6.5t67.5 3.5t45 1.5v-141q-8 -1 -48.5 -1.5t-75.5 -4.5t-62 -12 q-91 -27 -91 -102q15 22 51 38.5t84 16.5zM352 263q0 63 -18 91q-15 23 -50 23t-50 -22q-18 -28 -18 -92q0 -76 21 -103q14 -18 47 -18t48 20q20 28 20 101z" unicode="б"/>
<glyph glyph-name="afii10067" d="M223 119h79q23 0 36 12.5t13 34.5t-13 34.5t-36 12.5h-79v-94zM223 332h72q48 0 48 44q0 43 -48 43h-72v-87zM446 276q36 -22 51.5 -49.5t15.5 -68.5q0 -72 -45.5 -115t-122.5 -43h-283v538h272q79 0 125 -41t46 -110t-59 -111z" unicode="в"/>
<glyph glyph-name="afii10068" horiz-adv-x="444" unicode="г" d="M430 392h-201v-392h-164v538h365v-146z"/>
<glyph glyph-name="afii10069" horiz-adv-x="596" unicode="д" d="M352 146v246h-87q0 -118 -40 -246h127zM578 -114h-154v114h-260v-114h-154v260h53q25 79 35.5 156t10.5 213v23h406v-392h63v-260z"/>
<glyph glyph-name="afii10070" horiz-adv-x="559" unicode="е" d="M359 325q-1 40 -22 62t-58 22t-58.5 -22.5t-21.5 -61.5h160zM521 216h-322q5 -84 100 -84q31 0 58 10q22 9 48 35l98 -98q-51 -48 -91 -64q-50 -21 -118 -21q-256 0 -256 275q0 127 65 201t177 74q108 0 174.5 -70t66.5 -185v-73z"/>
<glyph glyph-name="afii10072" horiz-adv-x="803" unicode="ж" d="M183 0h-188l154 288l-147 250h184l133 -253v253h165v-253l133 253h184l-147 -250l154 -288h-188l-136 281v-281h-165v281z"/>
<glyph glyph-name="afii10073" horiz-adv-x="504" unicode="з" d="M461 163q0 -75 -60.5 -122t-146.5 -47q-162 0 -246 76l93 101q47 -40 124 -40q32 0 52.5 11t20.5 34q0 40 -60 40h-83v114h79q27 0 42.5 12t15.5 32q0 39 -76 39q-55 0 -101 -34l-90 99q79 66 228 66q83 0 141.5 -39t58.5 -107q0 -73 -67 -114q75 -38 75 -121z"/>
<glyph glyph-name="afii10074" horiz-adv-x="596" unicode="и" d="M226 0h-164v538h164v-271l144 271h164v-538h-164v281z"/>
<glyph glyph-name="afii10075" horiz-adv-x="596" unicode="й" d="M470 732q-1 -42 -16.5 -73t-41.5 -47.5t-54.5 -24t-59.5 -7.5q-43 0 -79 12.5t-64 48.5t-29 91h119q3 -53 53 -53t53 53h119zM226 0h-164v538h164v-271l144 271h164v-538h-164v281z"/>
<glyph glyph-name="afii10076" horiz-adv-x="561" unicode="к" d="M226 0h-165v538h165v-254l145 254h188l-163 -250l170 -288h-192l-148 282v-282z"/>
<glyph glyph-name="afii10077" horiz-adv-x="578" unicode="л" d="M516 0h-164v392h-93v-98q0 -115 -20 -180.5t-56 -89.5t-97 -24h-79v138h16q16 0 25 2t21 11.5t17.5 28t10 53.5t4.5 86v219h415v-538z"/>
<glyph glyph-name="afii10078" horiz-adv-x="689" unicode="м" d="M627 0h-164v268l-76 -143h-85l-76 143v-268h-164v538h162l121 -237l121 237h161v-538z"/>
<glyph glyph-name="afii10079" horiz-adv-x="579" unicode="н" d="M226 0h-164v538h164v-191h127v191h164v-538h-164v201h-127v-201z"/>
<glyph glyph-name="afii10080" horiz-adv-x="550" unicode="о" d="M343 269q0 88 -24 112q-15 15 -44 15t-44 -15q-24 -24 -24 -112t24 -112q15 -15 44 -15t44 15q24 24 24 112zM507 269q0 -80 -12.5 -124.5t-46.5 -81.5q-65 -69 -173 -69t-173 69q-34 37 -46.5 81.5t-12.5 124.5q0 79 13 124.5t46 81.5q65 69 173 69t173 -69 q33 -36 46 -81.5t13 -124.5z"/>
<glyph glyph-name="afii10081" horiz-adv-x="579" unicode="п" d="M226 0h-164v538h455v-538h-164v392h-127v-392z"/>
<glyph glyph-name="afii10082" horiz-adv-x="569" unicode="р" d="M362 272q0 70 -15 97t-54 27q-43 0 -56 -35q-11 -26 -11 -101q0 -66 15.5 -92t53.5 -26t52.5 28t14.5 102zM221 494q27 26 54 38q30 12 69 12q85 0 132 -49q50 -51 50 -177v-49q0 -84 -8 -138q-9 -55 -42 -88q-47 -49 -131 -49q-42 0 -71 13q-24 9 -48 32v-213h-164v712 h159v-44z"/>
<glyph glyph-name="afii10083" horiz-adv-x="475" unicode="с" d="M457 63q-40 -36 -74 -50q-45 -19 -103 -19q-117 0 -179.5 72t-62.5 208q0 128 63.5 199t178.5 71q58 0 103 -19q34 -14 74 -50l-111 -111q-35 32 -66 32q-78 0 -78 -127t78 -127q33 0 66 32z"/>
<glyph glyph-name="afii10084" horiz-adv-x="462" unicode="т" d="M452 392h-139v-392h-164v392h-139v146h442v-146z"/>
<glyph glyph-name="afii10085" horiz-adv-x="514" unicode="у" d="M518 538l-223 -602q-22 -61 -61.5 -88.5t-101.5 -27.5h-62v148h35q24 0 35.5 8.5t19.5 31.5l15 45l-179 485h172l91 -279l87 279h172z"/>
<glyph glyph-name="afii10086" horiz-adv-x="746" unicode="ф" d="M293 142v254q-93 -3 -93 -127q0 -67 23.5 -96t69.5 -31zM546 269q0 124 -93 127v-254q46 2 69.5 31t23.5 96zM710 274q0 -132 -68.5 -199.5t-186.5 -77.5v-171h-164v171q-118 10 -186.5 77.5t-68.5 199.5q0 246 255 267v171h164v-171q255 -21 255 -267z"/>
<glyph glyph-name="afii10087" d="M556 0h-197l-82 136l-80 -136h-197l187 275l-180 263h197l73 -130l75 130h197l-180 -263z" unicode="х"/>
<glyph glyph-name="afii10088" horiz-adv-x="603" unicode="ц" d="M585 -114h-154v114h-369v538h164v-392h127v392h164v-392h68v-260z"/>
<glyph glyph-name="afii10089" d="M494 0h-164v178q-70 -11 -133 -11q-62 0 -105 40t-43 103v228h164v-179q0 -23 13 -35.5t36 -12.5q17 0 68 6v221h164v-538z" unicode="ч"/>
<glyph glyph-name="afii10090" horiz-adv-x="834" unicode="ш" d="M62 0v538h164v-392h109v392h164v-392h109v392h164v-538h-710z"/>
<glyph glyph-name="afii10091" horiz-adv-x="858" unicode="щ" d="M840 -114h-154v114h-624v538h164v-392h109v392h164v-392h109v392h164v-392h68v-260z"/>
<glyph glyph-name="afii10092" horiz-adv-x="607" unicode="ъ" d="M417 177q0 22 -15 36t-38 14h-78v-100h78q23 0 38 14t15 36zM579 177q0 -77 -51.5 -127t-132.5 -50h-268v392h-114v146h278v-184h104q81 0 132.5 -49.5t51.5 -127.5z"/>
<glyph glyph-name="afii10093" horiz-adv-x="789" unicode="ы" d="M563 538h164v-538h-164v538zM352 177q0 22 -15 36t-38 14h-78v-100h78q23 0 38 14t15 36zM514 177q0 -77 -51.5 -127t-132.5 -50h-268v538h164v-184h104q81 0 132.5 -49.5t51.5 -127.5z"/>
<glyph glyph-name="afii10094" horiz-adv-x="542" unicode="ь" d="M352 177q0 22 -15 36t-38 14h-78v-100h78q23 0 38 14t15 36zM514 177q0 -77 -51.5 -127t-132.5 -50h-268v538h164v-184h104q81 0 132.5 -49.5t51.5 -127.5z"/>
<glyph glyph-name="afii10095" horiz-adv-x="475" unicode="э" d="M437 274q0 -136 -62.5 -208t-179.5 -72q-55 0 -95.5 16t-81.5 53l108 108q36 -33 69 -33q63 0 78 76h-124v109h124q-15 77 -78 77q-32 0 -69 -33l-108 108q41 37 81.5 53t95.5 16q115 0 178.5 -71t63.5 -199z"/>
<glyph glyph-name="afii10096" horiz-adv-x="800" unicode="ю" d="M593 272q0 70 -15 97t-53 27t-53 -27t-15 -97q0 -75 14.5 -102.5t53.5 -27.5t53.5 27.5t14.5 102.5zM757 270q0 -81 -13 -126.5t-46 -80.5q-66 -69 -173 -69q-100 0 -160.5 56t-68.5 154h-70v-204h-164v538h164v-194h70q11 94 72 147t157 53q109 0 173 -69 q33 -35 46 -80.5t13 -124.5z"/>
<glyph glyph-name="afii10097" horiz-adv-x="557" unicode="я" d="M215 0h-191l106 219q-88 46 -88 146q0 75 52 124t132 49h269v-538h-164v180h-42zM334 309v99h-80q-23 0 -37.5 -14.5t-14.5 -35.5t14.5 -35t37.5 -14h80z"/>
<glyph glyph-name="afii10071" horiz-adv-x="559" unicode="ё" d="M237 609h-134v145h134v-145zM463 609h-134v145h134v-145zM359 325q-1 40 -22 62t-58 22t-58.5 -22.5t-21.5 -61.5h160zM521 216h-322q5 -84 100 -84q31 0 58 10q22 9 48 35l98 -98q-51 -48 -91 -64q-50 -21 -118 -21q-256 0 -256 275q0 127 65 201t177 74 q108 0 174.5 -70t66.5 -185v-73z"/>
<glyph glyph-name="afii10099" horiz-adv-x="573" unicode="ђ" d="M516 -1q0 -179 -187 -179h-67v138h37q27 0 40 16.5t13 36.5v245q0 32 -17.5 51t-45.5 19t-45.5 -19t-17.5 -51v-256h-164v511h-42v126h42v75h164v-75h217v-126h-217v-87q56 50 120 50q78 0 124 -53t46 -142v-280z"/>
<glyph glyph-name="afii10100" horiz-adv-x="444" unicode="ѓ" d="M371 790l-118 -180h-99l49 180h168zM430 392h-201v-392h-164v538h365v-146z"/>
<glyph glyph-name="afii10101" horiz-adv-x="475" unicode="є" d="M457 63q-41 -37 -81.5 -53t-95.5 -16q-117 0 -179.5 72t-62.5 208q0 128 63.5 199t178.5 71q55 0 95.5 -16t81.5 -53l-108 -108q-37 33 -69 33q-63 0 -78 -77h124v-109h-124q15 -76 78 -76q33 0 69 33z"/>
<glyph glyph-name="afii10102" horiz-adv-x="504" unicode="ѕ" d="M477 176q0 -90 -66 -136t-167 -46q-50 0 -82 3.5t-74.5 21.5t-77.5 53l106 106q45 -45 131 -45q25 0 47.5 8t22.5 27q0 30 -39 34l-83 8q-156 15 -156 156q0 84 63.5 131t150.5 47q146 0 212 -66l-101 -101q-32 32 -114 32q-27 0 -40 -10t-13 -21q0 -6 0.5 -10t9 -11 t25.5 -9l83 -8q81 -8 121.5 -52t40.5 -112z"/>
<glyph glyph-name="afii10103" horiz-adv-x="288" unicode="і" d="M226 593h-164v125h164v-125zM226 0h-164v517h164v-517z"/>
<glyph glyph-name="afii10104" horiz-adv-x="288" unicode="ї" d="M98 609h-134v145h134v-145zM324 609h-134v145h134v-145zM226 0h-164v517h164v-517z"/>
<glyph glyph-name="afii10105" horiz-adv-x="288" unicode="ј" d="M226 593h-164v125h164v-125zM226 -21q0 -63 -42 -111t-125 -48h-87v138h57q33 0 33 33v526h164v-538z"/>
<glyph glyph-name="afii10106" horiz-adv-x="834" unicode="љ" d="M101 538h417v-184h104q81 0 132.5 -49.5t51.5 -127.5q0 -77 -51.5 -127t-132.5 -50h-268v392h-95v-98q0 -115 -20 -180.5t-56 -89.5t-97 -24h-79v138h16q16 0 25 2t21 11.5t17.5 28t10 53.5t4.5 86v219zM644 177q0 22 -15 36t-38 14h-78v-100h78q23 0 38 14t15 36z"/>
<glyph glyph-name="afii10107" horiz-adv-x="833" unicode="њ" d="M643 177q0 22 -15 36t-38 14h-78v-100h78q23 0 38 14t15 36zM805 177q0 -77 -51.5 -127t-132.5 -50h-268v208h-127v-208h-164v538h164v-184h127v184h164v-184h104q81 0 132.5 -49.5t51.5 -127.5z"/>
<glyph glyph-name="afii10108" horiz-adv-x="573" unicode="ћ" d="M516 0h-164v256q0 32 -17.5 51t-45.5 19t-45.5 -19t-17.5 -51v-256h-164v511h-42v126h42v75h164v-75h217v-126h-217v-87q56 50 120 50q78 0 124 -53t46 -142v-279z"/>
<glyph glyph-name="afii10109" horiz-adv-x="561" unicode="ќ" d="M441 790l-118 -180h-99l49 180h168zM226 0h-165v538h165v-254l145 254h188l-163 -250l170 -288h-192l-148 282v-282z"/>
<glyph glyph-name="afii10110" horiz-adv-x="514" unicode="ў" d="M518 538l-223 -602q-22 -61 -61.5 -88.5t-101.5 -27.5h-62v148h35q24 0 35.5 8.5t19.5 31.5l15 45l-179 485h172l91 -279l87 279h172zM430 732q-1 -42 -16.5 -73t-41.5 -47.5t-54.5 -24t-59.5 -7.5q-43 0 -79 12.5t-64 48.5t-29 91h119q3 -53 53 -53t53 53h119z"/>
<glyph glyph-name="afii10193" horiz-adv-x="579" unicode="џ" d="M365 -114h-154v114h-149v538h164v-392h127v392h164v-538h-152v-114z"/>
<glyph glyph-name="afii10050" d="M531 556h-284v-556h-175v712h291v144h168v-300z" unicode="Ґ"/>
<glyph glyph-name="afii10098" horiz-adv-x="444" unicode="ґ" d="M430 392h-201v-392h-164v538h211v114h154v-260z"/>
<glyph glyph-name="endash" d="M507 218h-458v154h458v-154z" unicode="–"/>
<glyph glyph-name="emdash" horiz-adv-x="1093" unicode="—" d="M1044 220h-995v158h995v-158z"/>
<glyph glyph-name="quoteleft" horiz-adv-x="278" unicode="‘" d="M221 566h-164v146l164 120v-266z"/>
<glyph glyph-name="quotesinglbase" horiz-adv-x="276" unicode="‚" d="M221 0l-164 -118v265h164v-147z"/>
<glyph glyph-name="quotedblleft" horiz-adv-x="511" unicode="“" d="M220 566h-163v146l163 120v-266zM454 566h-164v146l164 120v-266z"/>
<glyph glyph-name="quotedblright" horiz-adv-x="511" unicode="”" d="M220 565l-163 -118v265h163v-147zM454 565l-164 -118v265h164v-147z"/>
<glyph glyph-name="dagger" horiz-adv-x="564" unicode="†" d="M517 390h-153v-390h-164v390h-153v148h153v174h164v-174h153v-148z"/>
<glyph glyph-name="daggerdbl" horiz-adv-x="564" unicode="‡" d="M517 0h-153v-174h-164v174h-153v148h153v242h-153v148h153v174h164v-174h153v-148h-153v-242h153v-148z"/>
<glyph glyph-name="ellipsis" horiz-adv-x="899" unicode="…" d="M534 0h-170v170h170v-170zM227 0h-170v170h170v-170zM842 0h-170v170h170v-170z"/>
<glyph glyph-name="perthousand" horiz-adv-x="1229" unicode="‰" d="M696 137v87q0 39 -35 39t-35 -39v-87q0 -39 35 -39t35 39zM1068 137v87q0 39 -35 39t-35 -39v-87q0 -39 35 -39t35 39zM231 488v87q0 39 -35 39t-35 -39v-87q0 -39 35 -39t35 39zM661 712l-339 -712h-126l339 712h126zM347 484q0 -67 -43.5 -103t-107.5 -36t-107.5 36 t-43.5 103v95q0 67 43.5 103t107.5 36t107.5 -36t43.5 -103v-95zM812 133q0 -67 -43.5 -103t-107.5 -36t-107.5 36t-43.5 103v95q0 67 43.5 103t107.5 36t107.5 -36t43.5 -103v-95zM1184 133q0 -67 -43.5 -103t-107.5 -36t-107.5 36t-43.5 103v95q0 67 43.5 103t107.5 36 t107.5 -36t43.5 -103v-95z"/>
<glyph glyph-name="guilsinglleft" horiz-adv-x="363" unicode="‹" d="M303 9l-273 271l273 270v-193l-79 -77l79 -78v-193z"/>
<glyph glyph-name="guilsinglright" horiz-adv-x="363" unicode="›" d="M333 280l-273 -271v193l80 78l-80 77v193z"/>
<glyph glyph-name="fraction" horiz-adv-x="221" unicode="⁄" d="M343 712l-339 -712h-126l339 712h126z"/>
<glyph glyph-name="Euro" horiz-adv-x="688" unicode="€" d="M646 226q-19 -114 -92 -173t-178 -59q-118 0 -198 80q-55 55 -67 150h-76v102h71v62h-71v102h76q12 93 67 148q80 80 198 80q105 0 178 -59t92 -173h-178q-21 76 -91 76q-46 0 -69 -30q-14 -20 -18 -42h107v-102h-116v-62h116v-102h-108q6 -28 19 -44q23 -30 69 -30 q70 0 91 76h178z"/>
<glyph glyph-name="trademark" horiz-adv-x="973" unicode="™" d="M377 608h-105v-323h-116v323h-105v104h326v-104zM906 285h-117v219l-67 -131h-100l-67 131v-219h-117v427h117l117 -210l117 210h117v-427z"/>
<glyph glyph-name="arrowleft" horiz-adv-x="1027" unicode="←" d="M424 -82l-377 377l377 377h205l-304 -300h654v-154h-654l304 -300h-205z"/>
<glyph glyph-name="arrowup" horiz-adv-x="1027" unicode="↑" d="M891 180l-300 304v-655h-154v655l-300 -304v205l377 377l377 -377v-205z"/>
<glyph glyph-name="arrowright" horiz-adv-x="1027" unicode="→" d="M399 -82l304 300h-655v154h655l-304 300h205l377 -377l-377 -377h-205z"/>
<glyph glyph-name="arrowdown" horiz-adv-x="1027" unicode="↓" d="M890 206l-377 -377l-377 377v205l300 -304v654h154v-654l300 304v-205z"/>
<glyph glyph-name="partialdiff" horiz-adv-x="561" unicode="∂" d="M335 259q0 82 -21 103q-14 14 -39 14t-39 -14q-21 -21 -21 -103t21 -103q14 -14 39 -14t39 14q21 21 21 103zM499 259q0 -77 -12 -120.5t-45 -78.5q-62 -66 -167 -66t-167 66q-33 35 -45 78.5t-12 120.5t12.5 121t44.5 79q61 65 163 65q39 0 63 -12v1q0 9 -5.5 22.5 t-27 29t-53.5 15.5q-58 0 -92 -34l-102 102q39 39 87 54.5t115 15.5q119 0 181 -68t62 -181v-210z"/>
<glyph glyph-name="product" horiz-adv-x="680" unicode="∏" d="M608 -174h-175v779h-186v-779h-175v934h536v-934z"/>
<glyph glyph-name="summation" horiz-adv-x="553" unicode="∑" d="M523 -176h-493v136l181 342l-177 322v136h484v-156h-278l118 -224v-163l-126 -237h291v-156z"/>
<glyph glyph-name="minus" d="M507 218h-458v154h458v-154z" unicode="−"/>
<glyph glyph-name="radical" horiz-adv-x="616" unicode="√" d="M586 556h-94l-184 -556h-130l-178 538h177l67 -224l118 398h224v-156z"/>
<glyph glyph-name="infinity" horiz-adv-x="876" unicode="∞" d="M669 290q0 23 -14 36t-34 13q-13 0 -26.5 -8t-21.5 -16.5t-21 -24.5q13 -16 21 -24.5t21.5 -16.5t26.5 -8q20 0 34 13t14 36zM324 290q-13 16 -21 24.5t-21.5 16.5t-26.5 8q-20 0 -34 -13t-14 -36t14 -36t34 -13q13 0 26.5 8t21.5 16.5t21 24.5zM829 295q0 -90 -54 -148 t-155 -58t-182 88q-81 -88 -182 -88t-155 58t-54 148t54 148t155 58t182 -88q81 88 182 88t155 -58t54 -148z"/>
<glyph glyph-name="logicaland" horiz-adv-x="294" unicode="∧" d="M237 205h-180v180h180v-180z"/>
<glyph glyph-name="approxequal" horiz-adv-x="646" unicode="≈" d="M616 154q-51 -51 -92.5 -73.5t-92.5 -22.5q-65 0 -123 34q-43 25 -84 25q-47 0 -88 -41l-106 104q51 51 93.5 73.5t93.5 22.5q65 0 123 -34q43 -25 84 -25q47 0 88 41zM616 408q-51 -51 -93.5 -73.5t-93.5 -22.5q-65 0 -123 34q-43 25 -84 25q-47 0 -88 -41l-104 104 q51 51 92.5 73.5t92.5 22.5q65 0 123 -34q43 -25 84 -25q47 0 88 41z"/>
<glyph glyph-name="notequal" horiz-adv-x="640" unicode="≠" d="M591 96h-340l-103 -140l-99 74l48 66h-48v154h161l66 90h-227v154h340l103 140l99 -74l-48 -66h48v-154h-161l-66 -90h227v-154z"/>
<glyph glyph-name="lessequal" d="M503 -58l-450 198v173l450 -198v-173zM503 199l-450 198v142l450 198v-173l-235 -96l235 -96v-173z" unicode="≤"/>
<glyph glyph-name="greaterequal" d="M503 140l-450 -198v173l450 198v-173zM503 397l-450 -198v173l235 96l-235 96v173l450 -198v-142z" unicode="≥"/>
<glyph glyph-name="dotmath" horiz-adv-x="294" unicode="⋅" d="M237 205h-180v180h180v-180z"/>
<glyph glyph-name="lozenge" horiz-adv-x="628" unicode="◊" d="M396 334l-82 112l-82 -112l82 -112zM581 334l-267 -368l-267 368l267 368z"/>
</font>
</defs>
</svg>
